<svg width="370" height="220" viewBox="0 0 370 220" fill="none" xmlns="http://www.w3.org/2000/svg">
<path d="M242.03 85.0226H331.614V140.942H242.03V85.0226Z" fill="white"/>
<path d="M332 141.328H241.643V84.6356H332V141.328ZM242.416 140.555H331.228V85.4093H242.416V140.555Z" fill="#231F20"/>
<path d="M286.822 122.82L241.783 85.3202L242.277 84.7249L286.822 121.814L331.367 84.7249L331.861 85.3202L286.822 122.82Z" fill="#231F20"/>
<path d="M296.229 114.614L296.695 113.997L331.855 140.642L331.389 141.259L296.229 114.614ZM241.794 140.625L276.949 113.975L277.415 114.592L242.26 141.242L241.794 140.625Z" fill="#231F20"/>
<path d="M190.032 152.631H249.779V189.926H190.032V152.631Z" fill="white"/>
<path d="M250.166 190.312H189.646V152.244H250.166V190.312ZM190.419 189.538H249.394V153.017H190.419V189.538Z" fill="#231F20"/>
<path d="M219.905 178.007L189.785 152.928L190.278 152.333L219.905 177.001L249.532 152.333L250.026 152.928L219.905 178.007Z" fill="#231F20"/>
<path d="M226.102 172.474L226.567 171.857L250.017 189.628L249.551 190.245L226.102 172.474ZM189.798 189.608L213.245 171.834L213.71 172.451L190.264 190.225L189.798 189.608Z" fill="#231F20"/>
<path d="M168.248 36.0391H227.995V73.3341H168.248V36.0391Z" fill="white"/>
<path d="M228.381 73.7203H167.861V35.6516H228.381V73.7203ZM168.634 72.9466H227.609V36.4253H168.634V72.9466Z" fill="#231F20"/>
<path d="M198.121 61.4155L168.001 36.3365L168.494 35.7412L198.121 60.4094L227.749 35.7412L228.242 36.3365L198.121 61.4155Z" fill="#231F20"/>
<path d="M171.51 25L172.539 27.6793L175.213 28.7103L172.539 29.7413L171.51 32.4206L170.48 29.7423L167.807 28.7103L170.481 27.6793L171.51 25Z" fill="#D31145"/>
<path d="M158.427 102.662L159.456 105.341L162.13 106.372L159.456 107.403L158.427 110.082L157.397 107.404L154.725 106.372L157.398 105.341L158.427 102.662Z" fill="#D31145"/>
<path fill-rule="evenodd" clip-rule="evenodd" d="M204.784 55.2603L204.319 55.8774L227.768 73.6482L228.234 73.0311L204.784 55.2603ZM191.458 55.2456L168.012 73.0192L168.478 73.636L191.924 55.8624L191.458 55.2456ZM319.5 69.946L317.388 64.4485L315.277 69.946L309.791 72.0615L315.275 74.179L317.388 79.6745L319.5 74.177L324.986 72.0615L319.5 69.946ZM181.432 188.516L180.024 184.852L178.618 188.516L174.961 189.926L178.616 191.337L180.024 195L181.432 191.336L185.088 189.926L181.432 188.516ZM224.68 80.6961L223.235 76.933L221.79 80.6961L218.035 82.144L221.789 83.5934L223.235 87.355L224.68 83.5921L228.435 82.144L224.68 80.6961ZM109.076 141.605L108.047 138.926L107.018 141.605L104.345 142.636L107.017 143.668L108.047 146.347L109.076 143.667L111.75 142.636L109.076 141.605ZM75.4537 78.6435L74.4249 75.9642L73.396 78.6435L70.7222 79.6745L73.395 80.7065L74.4249 83.3845L75.4537 80.7055L78.1276 79.6745L75.4537 78.6435ZM24.159 132.97H20V133.744H24.159V132.97ZM52.4247 132.97H37.7586V133.744H52.4247V132.97ZM235.205 132.97H61.7574V133.744H235.205V132.97ZM52.4245 92.2211H47.1698V92.9948H52.4245V92.2211ZM100.187 92.2211H74.4249V92.9948H100.187V92.2211ZM235.205 92.2211H113.86V92.9948H235.205V92.2211ZM104.345 168.226H98.3936V169H104.345V168.226ZM182.77 168.226H116.728V169H182.77V168.226ZM83.2329 55.1768H77.6373V55.9505H83.2329V55.1768ZM161.042 55.1768H95.773V55.9505H161.042V55.1768Z" fill="#231F20"/>
<path d="M261.59 144.866L263.385 149.541L268.051 151.34L263.385 153.139L261.59 157.814L259.793 153.141L255.129 151.34L259.794 149.541L261.59 144.866Z" fill="#D31145"/>
</svg>
