<svg xmlns="http://www.w3.org/2000/svg" viewBox="0 0 375 338" style="white-space: pre;"><style>
@keyframes a0_o { 0% { opacity: 0; animation-timing-function: cubic-bezier(0,0,.6,1); } 100% { opacity: 1; } }
</style><rect width="375" height="338" fill="#fff"/><g fill="none" fill-rule="evenodd" opacity="0" transform="translate(188.5,166.5) scale(.940618,.940618) translate(-188.6,-171.5)" style="animation: 2s linear both a0_o;"><g><rect width="375" height="338"/><g fill-rule="nonzero" transform="translate(0,8)"><rect y="294.4" fill="#ebebeb" width="375" height="1"/><rect x="339.1" y="308.9" fill="#ebebeb" width="29.8" height="1"/><rect x="254.3" y="311.3" fill="#ebebeb" width="7.8" height="1"/><rect x="320.9" y="300.5" fill="#ebebeb" width="17.3" height="1"/><rect x="11.2" y="302" fill="#ebebeb" width="38.9" height="1"/><rect x="58.1" y="302" fill="#ebebeb" width="5.7" height="1"/><rect x="82.3" y="305.8" fill="#ebebeb" width="84.3" height="1"/><path d="M159.8 113.9c-1.2-0.8-2.5-1.2-3.9-1.2c-0.8-1 0-2.6 .8-3.6c.9-1 2-2.1 1.7-3.4c-0.4-2-3.1-2.2-5.1-1.9c-0.7-1.2-0.6-2.7-0.9-4.1c-0.3-1.3-1.3-2.8-2.7-2.7c-1.4 .1-2.1 1.6-3.4 1.8c-1.5 .3-2.7-1.1-3.9-2.1c-0.1-0.1-0.2-0.2-0.4-0.4c.4-4 4.3-3.2 7.6-3.5c2.6-0.4-3.9-7.2 1.4-9c1-0.3 1.9-0.8 2.6-1.7c.5-1.2 .1-2.7-1-3.6c-1.1-0.7-2.5-1.1-3.9-1.1c-0.8-1.1 0-2.6 .9-3.6c.8-1.1 1.9-2.2 1.6-3.5c-0.3-2-3.1-2.2-5.1-1.9c-0.6-1.2-0.6-2.7-0.9-4c-0.3-1.4-1.3-2.9-2.7-2.7c-1.4 .1-2.1 1.5-3.4 1.8c-1.5 .2-2.7-1.1-3.8-2.2c-1.2-1-3.2-1.7-4-0.5c-0.5 .8-0.3 1.9-0.8 2.6c-0.9 1.3-3 .4-4.2-0.6c-1.2-1-3.2-2-4.2-0.7c-0.2 .4-0.4 .9-0.5 1.3c-0.1 .3-0.3 .6-0.6 .9c-0.2-0.9-0.2-1.9-0.4-2.8c-0.3-1.4-1.3-2.8-2.7-2.7c-1.4 .1-2.2 1.5-3.5 1.8c-1.4 .3-2.7-1.1-3.8-2.1c-1.1-1.1-3.1-1.8-3.9-0.5c-0.6 .7-0.3 1.8-0.9 2.6c-0.1 .1-0.2 .3-0.4 .4c-0.4-0.1-0.9-0.2-1.3-0.2c-0.8-1.1 0-2.6 .8-3.6c.9-1 2-2.1 1.7-3.4c-0.4-2-3.1-2.2-5.1-1.9c-0.7-1.3-0.6-2.7-0.9-4.1c-0.3-1.3-1.3-2.8-2.7-2.7c-1.4 .1-2.1 1.5-3.4 1.8c-1.5 .3-2.7-1.1-3.9-2.1c-1.1-1.1-3.1-1.8-3.9-0.5c-0.6 .7-0.3 1.8-0.8 2.6c-0.9 1.2-3 .3-4.2-0.7c-1.2-1-3.2-1.9-4.2-0.7c-0.2 .5-0.4 .9-0.5 1.4c-0.7 1.7-2.6 2.4-4.1 3.5c-1.5 1-2.8 3.2-1.6 4.6c.5 .7 1.6 1 1.9 1.9c.3 1.1-0.8 2-1.7 2.7c-1.2 1.2-1.7 2.9-1.1 4.6c-0.5 .3-1 .6-1.6 .8c-1.5 .2-2.7-1.1-3.8-2.2c-1.1-1-3.1-1.8-4-0.5c-0.5 .8-0.2 1.8-0.8 2.6c-0.9 1.3-2.9 .4-4.1-0.6c-1.3-1-3-2.3-4-1c-0.2 .4-0.4 .9-0.6 1.3c-0.6 1.7-2.5 2.5-4.1 3.5c-1.5 1.1-2.7 3.2-1.6 4.7c.6 .6 1.6 1 1.9 1.8c-1-0.5-2.1-0.6-2.7 .3c-0.6 .8-0.3 1.8-0.8 2.6c-0.9 1.2-3 .3-4.2-0.7c-1.2-1-3.2-1.9-4.1-0.7c-0.3 .4-0.5 .9-0.6 1.4c-0.7 1.7-2.6 2.4-4.1 3.5c-1.5 1-2.8 3.2-1.6 4.6c.6 .7 1.6 1 1.9 1.9c.3 1.1-0.8 2-1.7 2.7c-1.5 1.1-2 4.7-0.1 5.8c.8 .5 1.9 .7 2.1 1.6c.1 .8-0.7 1.3-1.3 1.9c-0.7 .8-1 1.9-0.8 3c.1 1.1 .8 2.1 1.7 2.7c.5 .2 1 .4 1.2 .9c0 .3 0 .7-0.2 1c-0.2 .7-0.3 1.3-0.3 2c0 .3 .1 .5 .2 .7c.2 .1 .4 .2 .6 .2c2.7 .2 4.1-0.7 5.7 1.8c.1 .2 .3 .4 .5 .6c.3 .1 .5 .2 .8 .2c1.8 .3 3.1-0.9 4.9-1c2.4-0.2 2.8 1.1 4.9 2.2c3.2 1.7 4.8 .8 5.6-1.4c.2-0.6 .3-1.3 .4-2c0-0.9 .5-1.9 1.2-2.5h.1c1.7 .2 3-0.7 4.5-0.9l1-0.1c1.8 .1 2.4 1.2 4.2 2.2c.9 .5 1.8 .8 2.8 .9c.2 1-0.9 1.9-1.7 2.5c-1.5 1.2-1.9 4.8-0.1 5.9c.8 .5 2 .6 2.1 1.5c.2 .9-0.7 1.4-1.2 2c-0.8 .8-1.1 1.9-0.9 3c.2 1.1 .8 2 1.8 2.6c.4 .3 .9 .5 1.1 .9c0 .4 0 .7-0.2 1.1c-0.2 .6-0.3 1.3-0.2 2c-0.1 .2 0 .5 .2 .6c.1 .2 .3 .2 .6 .2c2.7 .3 4.1-0.6 5.6 1.8c.1 .3 .3 .5 .5 .7c.3 .1 .5 .2 .8 .2c1.9 .2 3.2-0.9 4.9-1c2.4-0.2 2.8 1.1 4.9 2.1c3.2 1.8 4.9 .9 5.6-1.3c.2-0.7 .3-1.3 .4-2c.4-4 4.3-3.2 7.6-3.6c.2 0 .4-0.1 .5-0.3h.2c1.9 .2 3.2-0.9 4.9-1c2.4-0.2 2.9 1 4.9 2.1c3.3 1.7 4.9 .9 5.6-1.4c.2-0.6 .4-1.2 .4-1.9c.4-3.1 2.7-3.3 5.4-3.4c0 1.2 .7 2.4 1.8 3c.4 .2 1 .4 1.1 .9c.1 .3 0 .7-0.1 1c-0.3 .7-0.4 1.4-0.3 2.1c0 .2 0 .4 .2 .6c.2 .1 .4 .2 .6 .2c2.7 .3 4.1-0.6 5.6 1.8c.2 .3 .4 .5 .6 .6c.2 .2 .5 .2 .7 .3c1.9 .2 3.2-0.9 4.9-1c2.4-0.2 2.9 1 4.9 2.1c3.2 1.7 4.9 .9 5.6-1.4c.2-0.6 .3-1.3 .4-1.9c.4-4.1 4.3-3.2 7.6-3.6c2.6-0.3-3.9-7.1 1.4-9c1-0.2 1.9-0.8 2.6-1.6c.5-1.3 .1-2.7-1-3.5Z" fill="#ebebeb"/><path d="M61.2 149.7c-0.9-0.6-2-0.9-3.1-0.9c-0.6-0.8 0-2 .7-2.8c.7-0.8 1.5-1.7 1.3-2.7c-0.3-1.6-2.4-1.7-4-1.5c-0.5-1-0.5-2.1-0.7-3.2c-0.2-1.1-1-2.2-2.1-2.1c-1.1 0-1.7 1.2-2.7 1.3c-1.2 .3-2.1-0.9-3-1.6c-0.9-0.8-2.4-1.4-3.1-0.4c-0.4 .6-0.2 1.4-0.7 2c-0.7 1-2.3 .3-3.2-0.5c-1-0.8-2.6-1.5-3.3-0.5c-0.2 .3-0.3 .6-0.4 1c-0.6 1.3-2.1 2-3.3 2.8c-1.2 .8-2.2 2.5-1.2 3.6c.4 .5 1.2 .8 1.4 1.5c.3 .8-0.6 1.5-1.3 2.1c-1.2 .9-1.5 3.7-0.1 4.6c.6 .3 1.6 .5 1.7 1.2c.1 .7-0.6 1.1-1 1.5c-0.6 .7-0.8 1.6-0.7 2.4c.1 .9 .6 1.7 1.4 2.1c.3 .2 .8 .4 .9 .7c0 .3 0 .6-0.1 .9c-0.2 .5-0.3 1-0.3 1.6c0 .1 .1 .3 .2 .5c.1 .1 .3 .1 .5 .1c2.1 .2 3.2-0.5 4.5 1.5c.1 .2 .2 .3 .4 .5c.2 .1 .4 .1 .6 .1c1.5 .2 2.5-0.7 3.8-0.8c1.9-0.1 2.3 .9 3.9 1.7c2.5 1.4 3.8 .7 4.4-1c.2-0.5 .3-1.1 .3-1.6c.4-3.2 3.4-2.5 6-2.8c2-0.3-3.1-5.6 1.1-7.1c.8-0.2 1.5-0.6 2-1.3c.5-1 .2-2.3-0.8-2.9Z" fill="#ebebeb"/><path d="M87.4 291.3h16.2c.9-16.2 4.2-88.4 .9-120.4c.2-1 .4-2.2 .7-3.5c2.2-12.6 14.9-31.1 17.4-34.1c2.6-2.9 9.9-12.2 9.9-12.2l-1.3-2.2l-11.7 11.7l4.9-13.3l8.7-10.2l-1.3-1.2l-8.2 8.1l-0.8-13.5l-3.1-0.2c0 0 3.3 15.6 .4 21.3c0 0-12.3 24.7-18.5 29.7c-0.3 .3-0.6 .7-0.9 1c-1.5-4.6-3.6-9-6.2-13.1c2.6-5.9 8.3-18.7 10.3-25.6c1.6-5.4 2.9-10.9 3.8-16.4l-2.3-1.4c0 0-6.4 26.7-16 38c-2.6-2.6-5.5-4.7-8.7-6.4c-0.6-3.7-0.6-10.1 2.3-19.8l-1.7-1.8c0 0-4.3 9.4-4.4 19.4c-1.4-0.7-2.7-1.6-3.9-2.5c-8.4-6.6-14-17.9-14-17.9l-3.3-0.2c0 0 8.1 18.5 18.2 24.5c10.1 5.9 16.2 19.6 16.6 23.1c.1 1-0.2 11.5-0.7 26.1c-11-7.5-38.1-25.7-39.4-27l-0.3 3.4l39.4 32.1c-1 32.3-2.6 92.6-3 104.5Z" fill="#f0f0f0"/><path d="M86.4 35.7c0-0.9-0.4-1.8-1-2.4c-0.6-0.7-1.5-1-2.4-1c-0.3 0-0.7 0-1 .1c.1-0.3 .1-0.7 .1-1c0-2.2-1-4.2-2.6-5.6c-1.7-1.4-3.9-1.9-6-1.5c-1.4-2.4-4.3-3.6-7-2.8c-2.8 .7-4.7 3.2-4.7 6h-0.1c-3.2 0-5.8 2.6-5.8 5.8c0 3.3 2.6 5.9 5.8 5.9h21.4c1.8-0.1 3.3-1.6 3.3-3.5Z" fill="#fafafa"/><path d="M279.1 51.4h17.2c0-0.4 0-0.9 0-1.3c0-6.3 5.1-11.3 11.3-11.3h.4c1.7-4.6 6.5-7.3 11.2-6.4c4.8 .8 8.3 5 8.3 9.9c4.9 .2 8.9 4.2 9.1 9.1h.5c2.7 0 5 2.2 5 5c0 2.8-2.3 5.1-5 5.1h-58c-2.8 0-5.1-2.3-5.1-5.1c0-2.8 2.3-5 5.1-5Z" fill="#fafafa"/><path d="M180.8 60c3.9-6.2 10.7-9.9 18-9.9c7.3 .1 14.1 3.9 17.9 10.2c3.4-1 7-0.3 9.8 1.9c2.8 2.1 4.5 5.4 4.5 8.9h5.9c3.1 0 5.6 2.6 5.6 5.7c0 3.1-2.5 5.6-5.6 5.6h-20.5c-3.4 5.4-9.2 8.9-15.5 9.6c-6.4 .7-12.8-1.6-17.3-6.2c-0.3 0-0.7 .1-1 .1c-6.9 0-12.6-5.3-13.1-12.2c-0.4-6.8 4.5-12.8 11.3-13.7Z" fill="#fafafa"/><path d="M272.7 179.5l3.3 9.6l16 4.9l-9.8 97.3h35.2c-0.8-9.6-4.8-54.9-5.6-68.1l16.2-30.8h-3.3l-0.7 1.1c-2.5 4-5.5 7.6-9 10.7c-1.3 1.2-2.7 2.2-4.3 3.1c-1.5-4.3-4.2-61-4.2-61c0 0-3.3 8-13.7 3.2l-1 36.2l-10.4-2.1l-10.1-19.9h-4l3.6 8.5l-8.5-1.8l-7.3-9.3l-2.5 .6l6.6 10.1l13.5 7.7Z" fill="#f0f0f0"/><path d="M351.8 127.1c5.2 2.1 8.7 7.2 8.6 12.9c-0.4 5.6-3.8 10.6-9 12.8c-5.3 2-11.2 1.2-15.7-2.1c-0.2 5.3-3.8 11-8.9 12.6c-5.2 1.5-10.8-0.2-14.2-4.5c-13.6 8.5-61.2 11.7-69.6-24.7c-1.7-7.5 2.4-15.4 8.6-20.1c6.1-4.6 13.9-6.5 21.6-7.5c7.2-11.5 23.4-17.8 36.9-16c13.8 2 25.3 11.8 29.5 25.1c13.8 .1 12.4 12.5 12.2 11.5Z" fill="#ebebeb"/><path d="M335 198.7c-1.6 2.3-4.4 3.5-7.2 3.1c-2.8-0.5-5.1-2.5-5.9-5.2c-3.2 2.3-8.2 1.7-11.4-0.5c-3.4-2.3-5-6.4-4.1-10.3c1-4 4.2-7 8.3-7.5c.3-3.6 2.3-6.9 5.5-8.9c3.2-2 7.2-2.4 10.8-1.1c4.3-0.7 8.6 .7 11.6 3.7c2.3 2.1 3.5 5.1 3.4 8.1c-0.3 3.1-2.5 6-5.5 6.6c1.1 2.2 1.2 4.7 .3 7c-0.9 2.3-3.5 4.1-5.8 5Z" fill="#ebebeb"/><path d="M266.4 143.7c2.7-0.9 5.6-0.2 7.6 1.8c2 2 2.6 5 1.6 7.6c3.9 .2 7.6 3.6 8.9 7.3c1.3 3.9 .1 8.1-3.1 10.7c-3.1 2.6-7.5 3-11 1c-2.5 2.7-6.1 4.2-9.7 3.8c-3.9-0.3-7.3-2.4-9.4-5.6c-3.8-2-6.4-5.6-7-9.9c-0.6-3 .2-6.1 2.1-8.5c2.1-2.3 5.6-3.3 8.3-2c.5-2.4 1.9-4.5 4-5.8c2.2-1.3 5.3-1.1 7.7-0.4Z" fill="#ebebeb"/><rect x="26.8" y="213.3" fill="#ebebeb" width="322.6" height="10.9"/><path fill="#e6e6e6" d="M34.4 281.2h-15.2v-95.8l7.6-5.4l7.6 5.4Z"/><path fill="#e6e6e6" d="M61.3 281.2h-15.2v-95.8l7.6-5.4l7.6 5.4Z"/><path fill="#e6e6e6" d="M88.1 281.2h-15.2v-95.8l7.6-5.4l7.6 5.4Z"/><path fill="#e6e6e6" d="M115 281.2h-15.2v-95.8l7.6-5.4l7.6 5.4Z"/><path fill="#e6e6e6" d="M141.9 281.2h-15.2v-95.8l7.6-5.4l7.6 5.4Z"/><path fill="#e6e6e6" d="M168.8 281.2h-15.2v-95.8l7.6-5.4l7.6 5.4Z"/><path fill="#e6e6e6" d="M195.7 281.2h-15.2v-95.8l7.6-5.4l7.6 5.4Z"/><path fill="#e6e6e6" d="M222.5 281.2h-15.1v-95.8l7.5-5.4l7.6 5.4Z"/><path fill="#e6e6e6" d="M249.4 281.2h-15.2v-95.8l7.6-5.4l7.6 5.4Z"/><path fill="#e6e6e6" d="M276.3 281.2h-15.2v-95.8l7.6-5.4l7.6 5.4Z"/><path fill="#e6e6e6" d="M303.2 281.2h-15.2v-95.8l7.6-5.4l7.6 5.4Z"/><path fill="#e6e6e6" d="M330.1 281.2h-15.2v-95.8l7.6-5.4l7.6 5.4Z"/><path fill="#e6e6e6" d="M356.9 281.2h-15.1v-95.8l7.6-5.4l7.5 5.4Z"/><path d="M345.4 282.2c0 0 2.5-8.4-2.6-10.1c-5.1-1.6-8.1-5.6-7.9-10c.2-4.5-5.2-8.8-9.2-4.6c-4 4.1-3.5-3.3-8.8-5c-5.4-1.8-9.9 2.5-8.5 6.5c1.5 4-3.8 6.4-10.1 3.1c-6.3-3.4-13.3 2.7-12 7.5c1.4 4.9 .3 5.4-3.7 3.8c-4-1.6-11.2 2.9-8.7 8.8c2.5 5.9 71.5 0 71.5 0Z" fill="#e0e0e0"/><path d="M75.1 281c0 0 1.9-6.5-2-7.8c-4-1.3-6.3-4.4-6.2-7.8c.2-3.5-4-6.8-7.1-3.6c-3.1 3.2-2.7-2.5-6.9-3.9c-4.1-1.4-7.6 2-6.5 5.1c1.1 3-3 5-7.9 2.3c-4.9-2.6-10.3 2.2-9.2 5.9c1 3.8 .1 4.2-3 2.9c-3.1-1.2-8.6 2.3-6.7 6.9c2 4.6 55.5 0 55.5 0Z" fill="#e0e0e0"/><path d="M172.8 281.8c4.5-4.5 .4-12.2-4.1-13.1c-4.5-0.9-9-8.8-9.2-13.8c-0.2-5-8.3-20.5-20.9-11c-12.6 9.6-8.8 1.5-17.9-1.2c-9.1-2.7-14.9 5-10.9 10.8c0 0-9.1-2.3-12.9 6.3c-3.8 8.5 0 13.8 0 13.8c0 0-17.2-0.5-15.6 10.1c1.5 10.7 91.5-1.9 91.5-1.9Z" fill="#e0e0e0"/><path d="M12.8 282.1v12.3h347.4v-12.3c0-1-0.3-2-1-2.7c-0.7-0.8-1.6-1.2-2.6-1.2h-340.2c-1 0-2 .4-2.7 1.1c-0.6 .8-1 1.8-0.9 2.8Z" fill="#ebebeb"/><rect x="318.8" y="278.2" fill="#f5f5f5" width="21.6" height="16.2"/><rect x="278.3" y="278.2" fill="#f5f5f5" width="20.7" height="16.2"/><rect x="236.9" y="278.2" fill="#f5f5f5" width="21.6" height="16.2"/><rect x="196.4" y="278.2" fill="#f5f5f5" width="20.7" height="16.2"/><rect x="155.9" y="278.2" fill="#f5f5f5" width="20.7" height="16.2"/><rect x="114.5" y="278.2" fill="#f5f5f5" width="21.6" height="16.2"/><rect x="74" y="278.2" fill="#f5f5f5" width="20.7" height="16.2"/><rect x="32.6" y="278.2" fill="#f5f5f5" width="21.6" height="16.2"/></g><g fill="#f5f5f5" fill-rule="nonzero" transform="translate(19.5,322.6)"><ellipse cx="174.5" cy="10.2" rx="174.5" ry="10.2"/></g><g fill-rule="nonzero" transform="translate(38,101)"><g transform="translate(0,84.1)"><path d="M72.4 18.7c0 0 7.7-0.4 8.8-0.5c1-0.1 9 .1 8.7-7.2c-0.4-7.3-7.2-7.2-9.1-7.2l-12 .1c-0.9 0-1.7-0.8-1.9-1.7c0-0.5 .1-1 .5-1.4c.3-0.4 .8-0.7 1.3-0.7l1-0.1c0 0 9.7 0 12.5 .2c2.7 .2 11.8-0.5 11.7 10.7c0 11.1-9.2 10.7-11 10.7l-10.4 .1l-0.1-3Z" fill="#263238"/><path d="M72.4 18.7c0 0 7.7-0.4 8.8-0.5c1-0.1 9 .1 8.7-7.2c-0.4-7.3-7.2-7.2-9.1-7.2l-12 .1c-0.9 0-1.7-0.8-1.9-1.7c0-0.5 .1-1 .5-1.4c.3-0.4 .8-0.7 1.3-0.7l1-0.1c0 0 9.7 0 12.5 .2c2.7 .2 11.8-0.5 11.7 10.7c0 11.1-9.2 10.7-11 10.7l-10.4 .1l-0.1-3Z" fill="#fff" opacity=".3"/><rect fill="#263238" width="10.1" height="4.1" transform="translate(114.1,98.9) rotate(180) translate(-5.1,-2)"/><path fill="#263238" d="M130.9 117.5l-18.8-16.6l2.3-2.5l18.8 16.6Z"/><path fill="#fff" opacity=".05" d="M130.9 117.5l-18.8-16.6l2.3-2.5l18.8 16.6Z"/><path d="M190.8 103.9c0 2.9 2.3 5.2 5.1 5.2c2.8 0 5.1-2.3 5.1-5.2c0-2.8-2.3-5.1-5.1-5.1c-1.4 0-2.7 .6-3.6 1.5c-1 1-1.5 2.3-1.5 3.6Z" fill="#c53f3f"/><path d="M190.8 103.9c0 2.9 2.3 5.2 5.1 5.2c2.8 0 5.1-2.3 5.1-5.2c0-2.8-2.3-5.1-5.1-5.1c-1.4 0-2.7 .6-3.6 1.5c-1 1-1.5 2.3-1.5 3.6Z" fill="#fff" opacity=".5"/><path d="M43.4 103.9c0 2.9 2.3 5.2 5.1 5.2c2.8 0 5.1-2.3 5.1-5.2c0-2.8-2.3-5.1-5.1-5.1c-1.4 0-2.7 .6-3.6 1.5c-1 1-1.5 2.3-1.5 3.6Z" fill="#c53f3f"/><path d="M43.4 103.9c0 2.9 2.3 5.2 5.1 5.2c2.8 0 5.1-2.3 5.1-5.2c0-2.8-2.3-5.1-5.1-5.1c-1.4 0-2.7 .6-3.6 1.5c-1 1-1.5 2.3-1.5 3.6Z" fill="#fff" opacity=".5"/><path d="M151.1 102c0 24.8 20.2 45 45 45c24.9 0 45-20.2 45-45c0-24.8-20.1-45-45-45c-24.8 0-45 20.2-45 45Zm5.5 0c0-21.9 17.7-39.6 39.6-39.6c21.9 0 39.6 17.7 39.6 39.6c0 21.8-17.7 39.6-39.6 39.6c-21.9 0-39.6-17.8-39.6-39.6Z" fill="#263238"/><path d="M151.1 102c0 24.8 20.2 45 45 45c24.9 0 45-20.2 45-45c0-24.8-20.1-45-45-45c-24.8 0-45 20.2-45 45Zm5.5 0c0-21.9 17.7-39.6 39.6-39.6c21.9 0 39.6 17.7 39.6 39.6c0 21.8-17.7 39.6-39.6 39.6c-21.9 0-39.6-17.8-39.6-39.6Z" fill="#fff" opacity=".5"/><path d="M147.7 102c0 26.8 21.7 48.5 48.5 48.5c26.8 0 48.5-21.7 48.5-48.5c0-26.8-21.7-48.5-48.5-48.5c-12.9 0-25.2 5.1-34.3 14.2c-9.1 9.1-14.2 21.4-14.2 34.3Zm5.8 0c0-17.2 10.4-32.8 26.4-39.4c15.9-6.5 34.2-2.9 46.4 9.3c12.2 12.1 15.8 30.5 9.3 46.4c-6.6 15.9-22.2 26.3-39.4 26.3c-23.6 0-42.6-19.1-42.7-42.6Z" fill="#263238"/><path d="M3.5 102c0 24.8 20.1 45 45 45c24.8 0 45-20.2 45-45c0-24.8-20.2-45-45-45c-24.9 0-45 20.2-45 45Zm5.4 0c0-21.9 17.8-39.6 39.6-39.6c21.9 0 39.6 17.7 39.6 39.6c0 21.8-17.7 39.6-39.6 39.6c-21.8 0-39.6-17.8-39.6-39.6Z" fill="#263238"/><path d="M3.5 102c0 24.8 20.1 45 45 45c24.8 0 45-20.2 45-45c0-24.8-20.2-45-45-45c-24.9 0-45 20.2-45 45Zm5.4 0c0-21.9 17.8-39.6 39.6-39.6c21.9 0 39.6 17.7 39.6 39.6c0 21.8-17.7 39.6-39.6 39.6c-21.8 0-39.6-17.8-39.6-39.6Z" fill="#fff" opacity=".5"/><path d="M0 102c0 26.8 21.7 48.5 48.5 48.5c26.8 0 48.5-21.7 48.5-48.5c0-26.8-21.7-48.5-48.5-48.5c-12.9 0-25.2 5.1-34.3 14.2c-9.1 9.1-14.2 21.4-14.2 34.3Zm5.9 0c0-23.5 19.1-42.6 42.6-42.6c23.5 0 42.6 19.1 42.6 42.6c0 23.5-19.1 42.6-42.6 42.6c-23.5 0-42.6-19.1-42.6-42.6Z" fill="#263238"/><path fill="#263238" d="M90.1 4.1l-9.6 30.7l-3.9-1.3l9.1-30.5Z"/><path d="M45.1 104.2l1.9 1.4l15.2-19.9l10.9-28.3l2.5-7.6l56.2 67.5l61.8-13.2l-0.3-1.8l.4-0.3l-0.8-1.4l-37.5-60.8l1-3.6l-3.4-1l-0.6 2.2h-72.8l.9-2.7l-3.9-1.3l-7.4 22.7l-9.4 28.8l-14.7 19.3Zm144.9-2.9l-55.8 11.9l20.1-69.7l35.7 57.8Zm-113.1-55.5l1.4-4.2h72.9l-20 69.4l-54.3-65.2Z" fill="#c53f3f"/><path d="M45.1 104.2l1.9 1.4l15.2-19.9l10.9-28.3l2.5-7.6l56.2 67.5l61.8-13.2l-0.3-1.8l.4-0.3l-0.8-1.4l-37.5-60.8l1-3.6l-3.4-1l-0.6 2.2h-72.8l.9-2.7l-3.9-1.3l-7.4 22.7l-9.4 28.8l-14.7 19.3Zm144.9-2.9l-55.8 11.9l20.1-69.7l35.7 57.8Zm-113.1-55.5l1.4-4.2h72.9l-20 69.4l-54.3-65.2Z" fill="#fff" opacity=".5"/><path fill="#263238" d="M166.6 25.4l-5.2 3.9l-2.3-0.6l-2.7 7.5l-3.4-1l4.5-9.8l1.6-1.5Z"/><path fill="#fff" opacity=".4" d="M166.6 25.4l-5.2 3.9l-2.3-0.6l-2.7 7.5l-3.4-1l4.5-9.8l1.6-1.5Z"/><path d="M141.5 20.8c6.5-1.5 13.3 .2 20.2 4.6h7c0 0 8.3-4.4 10-6.3c1.7-1.8 .6-2.2 .6-2.2c-10.6 1.6-31.5-0.7-34.3-0.7c-2.8 0-4.5 3.1-3.5 4.6Z" fill="#263238"/><path d="M141.5 20.8c6.5-1.5 13.3 .2 20.2 4.6h7c0 0 8.3-4.4 10-6.3c1.7-1.8 .6-2.2 .6-2.2c-10.6 1.6-31.5-0.7-34.3-0.7c-2.8 0-4.5 3.1-3.5 4.6Z" fill="#fff" opacity=".1"/><path d="M119.2 115.7c0 6.8 5.5 12.4 12.3 12.4c6.9 0 12.4-5.6 12.4-12.4c0-6.8-5.5-12.3-12.4-12.3c-6.8 0-12.3 5.5-12.3 12.3Zm10.8-8.3v6.1l-5.6-1.8c1.2-2.2 3.2-3.8 5.7-4.3h-0.1Zm8.7 4.3l-5.5 1.8v-6.1c2.3 .5 4.4 2.1 5.5 4.3Zm1 4c0 2-0.8 4-2.1 5.6l-3.5-4.8l5.5-1.8c0 .3 .1 .7 .1 1Zm-8.1 8.5c-1.3 0-2.5-0.4-3.6-0.9l3.6-5l3.6 4.9c-1.2 .6-2.4 .9-3.6 1Zm-8.1-8.5c0-0.4 0-0.7 0-1.1l5.6 1.8l-3.6 4.9c-1.3-1.5-2.1-3.5-2.1-5.6h.1Z" fill="#263238"/><path d="M119.2 115.7c0 6.8 5.5 12.4 12.3 12.4c6.9 0 12.4-5.6 12.4-12.4c0-6.8-5.5-12.3-12.4-12.3c-6.8 0-12.3 5.5-12.3 12.3Zm10.8-8.3v6.1l-5.6-1.8c1.2-2.2 3.2-3.8 5.7-4.3h-0.1Zm8.7 4.3l-5.5 1.8v-6.1c2.3 .5 4.4 2.1 5.5 4.3Zm1 4c0 2-0.8 4-2.1 5.6l-3.5-4.8l5.5-1.8c0 .3 .1 .7 .1 1Zm-8.1 8.5c-1.3 0-2.5-0.4-3.6-0.9l3.6-5l3.6 4.9c-1.2 .6-2.4 .9-3.6 1Zm-8.1-8.5c0-0.4 0-0.7 0-1.1l5.6 1.8l-3.6 4.9c-1.3-1.5-2.1-3.5-2.1-5.6h.1Z" fill="#fff" opacity=".4"/><path fill="#263238" d="M147 131.7l-18.8-16.6l2.2-2.6l18.8 16.6Z"/><path fill="#fff" opacity=".05" d="M147 131.7l-18.8-16.6l2.2-2.6l18.8 16.6Z"/><rect fill="#263238" width="10.1" height="4.1" transform="translate(147.7,129.6) rotate(180) translate(-5.1,-2)"/><path fill="#263238" d="M75.8 1.4l9.9 1.9l-1.5 4.6l-3.1-0.5l-0.9 1.4l-5.5-1.1Z"/><path d="M88.2 20.8c0 0 7.7-0.4 8.8-0.5c1-0.1 9 .1 8.7-7.2c-0.4-7.3-7.2-7.2-9.1-7.2l-12 .1c-0.9 0-1.8-0.8-1.9-1.7c0-0.5 .1-1 .4-1.4c.4-0.4 .9-0.7 1.4-0.7l1-0.1c0 0 9.7 0 12.5 .2c2.7 .2 11.8-0.5 11.7 10.7c0 11.1-9.2 10.7-11 10.7l-10.4 .1l-0.1-3Z" fill="#263238"/><path d="M88.2 20.8c0 0 7.7-0.4 8.8-0.5c1-0.1 9 .1 8.7-7.2c-0.4-7.3-7.2-7.2-9.1-7.2l-12 .1c-0.9 0-1.8-0.8-1.9-1.7c0-0.5 .1-1 .4-1.4c.4-0.4 .9-0.7 1.4-0.7l1-0.1c0 0 9.7 0 12.5 .2c2.7 .2 11.8-0.5 11.7 10.7c0 11.1-9.2 10.7-11 10.7l-10.4 .1l-0.1-3Z" fill="#fff" opacity=".5"/></g><g transform="translate(202.7,30.4)"><path d="M30.3 187.9c-2.7-2.6-5-5.5-7-8.7c-1.3-1.9-1.5-1.4-2.9-3.3c-0.4-0.5-0.4-1.3-0.2-1.9c.3-0.7 .8-1.2 1.5-1.4c1.2-0.2 2.4-0.5 3.6-1l4.8 3.6c-0.9 2.3 .1 8.6 2.6 11.3c1.7 1.9-1 2.7-2.4 1.4Z" fill="#263238"/><path d="M29.7 176.3c-0.2 .1-0.5 0-0.9-0.2c-1.3-0.9-3.4-3.7-3.6-4.6c2.4-4.6 4.5-9.3 6.4-14.1c5.5-13.8 10.3-28 16.6-32.3c-20.1-30.6-22.7-50-22.7-50l22.4-3.3c0 0 13.3 39.6 14.9 54.1c1.6 14.1-33.1 50.4-33.1 50.4Z" fill="#d31145"/><path d="M38 85.6c0 0 .9 14.5 1.1 24.4c-2.6-4.9-4.8-9.3-6.5-13.3l5.4-11.1Z" fill="#000" opacity=".2"/><path d="M31.7 157.4c-0.2 4.4-0.8 12.3-2.9 18.7c-1.3-0.9-3.4-3.7-3.6-4.6c2.4-4.6 4.6-9.3 6.5-14.1Z" fill="#000" opacity=".2"/><path d="M34.4 204.1c-4.8-0.1-5.4-0.1-8.1-0.3c-2.3-0.1-2.9 .2-4.7 .1c-1.6 0-1.5-1.5-1-3.2c.3-0.9 .7-2.7 1-4l7-0.5c1 1.9 3.2 4.7 5.9 5.1c2.7 .4 1.8 2.8-0.1 2.8Z" fill="#263238"/><path d="M32.4 131.5c-3.4 20-4.2 52.2-3.6 65.4c-0.8 .4-3 .3-5.1 0l-1-0.2c-0.5-0.2-0.9-0.3-1.3-0.4c0 0-12.8-43.2-2.7-62.9c-5.8-46.6 3.6-57.8 3.6-57.8l.4-0.1l.9-0.1l17.6-2.6c0 0-5.6 39.6-8.8 58.7Z" fill="#d31145"/><path d="M44.4 40.2c3.7 4.2 7.8 8 12.2 11.3c-0.2-0.1-0.9-0.1-1 0c2.2-1.1 3.8-3.9 5.2-6c1.7-2.8 3.4-5.7 5-8.7c.4-0.8 1.5-1.2 2.4-0.8c.9 .3 1.4 1.3 1.2 2.3c-1.8 6.1-7.2 23.7-16.2 19.4c-5.7-3.2-10.8-7.5-15-12.5c-1.3-1.7-1-4.2 .7-5.5c1.7-1.4 4.1-1.1 5.5 .6v-0.1Z" fill="#e9b376"/><path d="M12.7 44.6c7 15.5 9 23.6 9.6 31l25.6-3.8c-0.5-8.5-0.8-13.5-1.4-18.6c-0.3-3.6-0.8-7-1.5-10.5c-0.7-3.6-3.5-7.4-7-8.7c-0.8-0.3-1.7-0.5-2.6-0.5c-1.3 0-2.6 0-3.9 .1c-3.9 .3-7.8 .9-11.6 1.7c-1.1 .2-2.2 .5-3.2 .7c-0.2 .1-0.4 .1-0.6 .2c-1.6 .6-2.9 1.9-3.6 3.4c-0.6 1.6-0.5 3.4 .2 5Z" fill="#c53f3f"/><path d="M12.7 44.6c.8 1.7 1.5 3.3 2.2 4.9c1.9 4.5 3.3 8.3 4.4 11.6c1.6 4.7 2.6 9.5 3 14.5l25.6-3.8c-0.5-8.5-0.8-13.5-1.4-18.6c-0.3-3.6-0.8-7-1.5-10.5c-0.7-3.6-3.5-7.4-7-8.7c-0.8-0.3-1.7-0.5-2.6-0.5c-1.3 0-2.6 0-3.9 .1c-3.9 .3-7.8 .9-11.6 1.7c-1.1 .2-2.2 .5-3.2 .7c-0.2 .1-0.4 .1-0.6 .2c-1.6 .6-2.9 1.9-3.6 3.4c-0.6 1.6-0.5 3.4 .2 5Z" fill="#fff" opacity=".6"/><path d="M14.9 49.5c1.9 4.5 3.3 8.3 4.4 11.6c9.4-5.7 1.8-15.5 1.8-15.5c-2.4 .8-4.5 2.1-6.2 3.9Z" fill="#000" opacity=".1"/><path d="M18.8 22.1c1.6 3.6 3.8 10.3 1.7 13.1c0 0 3.5-1 11.7 2.6c1.8-3.5 0-4.2 0-4.2c-4.4-0.4-4.9-3.5-4.8-6.5l-8.6-5Z" fill="#ebb376"/><path d="M22.3 24.2l5 2.9c0 .7 0 1.4 .1 2.1c-1.6 0-4.2-1.4-4.8-3c-0.2-0.7-0.3-1.4-0.3-2Z" fill="#000" opacity=".2"/><path d="M10.9 11.8c0 0-2.7-1.5-6.9 0c-4.1 1.5-5.1 5.9-2.8 10.3c2.3 4.5-0.7 7.5-0.2 9.6c.5 2.5 3 4.1 5.5 3.6c0 0-1.9-0.1-1.9-1.8c0-1.6 4-2.6 3.7-6.8c-0.2-4.3-2.4-6.2-1.1-9.1c.8-1.7 2.4-2.9 4.2-3.3l-0.5-2.5Z" fill="#263238"/><path d="M10.9 15c0 0 .1 8.6 7.9 7.8c7.8-0.8-1.1-13-7.9-7.8Z" fill="#263238"/><path d="M35.2 4.4c1.9 .5-7.6 4-7.6 4l-4.6-2.5c3.7-2.1 8.1-2.7 12.2-1.5Z" fill="#c53f3f"/><path d="M14.5 15.1c2 5.8 2.8 8.4 6.6 10.8c5.9 3.5 12.6 .2 12.5-6c-0.2-5.7-3.5-14.4-10-15.4c-2.9-0.6-5.8 .4-7.7 2.6c-1.9 2.2-2.4 5.2-1.4 8Z" fill="#ebb376"/><path d="M16.1 11.6c.8 .1 1.5 .1 2.3-0.1c-0.3-0.6-0.1-1.2 .5-1.5c.2-0.1 .3-0.2 .5-0.3c.1-1 .8-1.8 1.8-2c.7-0.7 1.4-1.4 2.2-1.9c1.6-0.9 3.4-1.3 5.2-1.3h.1c-1.3-1.4-5.9-4.4-8.5-4.5c-4.9-0.1-10.4 2.6-10.9 10.2c-0.5 7.7 4.6 7.6 6.8 7.3c2.1-0.3 1.8-5 0-5.9Z" fill="#263238"/><path d="M22.4 15c.1 .4 .5 .8 .9 .7c.4 0 .5-0.5 .3-1c-0.1-0.5-0.5-0.9-0.8-0.8c-0.4 .1-0.6 .6-0.4 1.1Z" fill="#263238"/><path d="M28.7 13.4c.1 .5 .5 .8 .8 .7c.4 0 .5-0.5 .3-1c-0.1-0.5-0.5-0.8-0.8-0.8c-0.3 .1-0.5 .6-0.3 1.1Z" fill="#263238"/><path d="M28.9 12.4l1-0.6c0 0-0.3 1.1-1 .6Z" fill="#263238"/><path d="M27.1 14.9c.7 1 1.6 2 2.7 2.8c-0.5 .5-1.1 .8-1.7 .7l-1-3.5Z" fill="#d58745"/><path d="M25.8 20.9c.3 0 .6 0 .9-0.1c0 0 0 0 0-0.1c.1 0 .1-0.1 .1-0.1c-0.1-0.1-0.1-0.1-0.2-0.1c-1.3 .3-2.7 0-3.7-0.8c0-0.1-0.1-0.1-0.1-0.1c0 0-0.1 0-0.1 .1c-0.1 0-0.1 .1 0 .2c.9 .7 2 1.1 3.1 1Z" fill="#263238"/><path d="M13.9 20.4c.9 1 2.1 1.5 3.5 1.6c1.7 0 2-1.7 1-3.2c-0.8-1.3-2.7-2.9-4.2-2.2c-1.5 .7-1.5 2.6-0.3 3.8Z" fill="#ebb376"/><path d="M20.5 12c.1 0 .2 0 .2-0.1c.4-0.6 1.1-1 1.9-1c.1 0 .1-0.1 .2-0.1c.1-0.1 .1-0.1 .1-0.2c0-0.2-0.2-0.3-0.3-0.3c-1 0-1.9 .4-2.4 1.2c-0.1 .2 0 .4 .1 .5c.1 0 .2 0 .2 0Z" fill="#263238"/><path d="M30.3 9.5c.1 0 .1 0 .2-0.1c.1-0.1 .1-0.3 0-0.4c-0.7-0.7-1.7-1.1-2.7-1c-0.1 0-0.2 .1-0.2 .2c0 0 0 .1 0 .2c0 .1 .2 .2 .3 .2c.8-0.1 1.6 .2 2.2 .8c0 .1 .1 .1 .2 .1Z" fill="#263238"/><path d="M22.6 14l1.1-0.6c0 0-0.4 1-1.1 .6Z" fill="#263238"/><path d="M15.3 13.2c-1.7 .9-3.2 2.1-4.4 3.5l-0.6-1c1.2-1.5 2.5-3 3.9-4.3c1.7-1.2 1.1 1.8 1.1 1.8Z" fill="#c53f3f"/><path d="M27.1 3.3c0 0-2.3-3.2-3.1-3.3c-0.8-0.1-8.6 .7-10 2.8c-1.3 2-2.7 5.1 .9 10.6l12.2-10.1Z" fill="#c53f3f"/><path d="M14.9 13.4c0 0 1.7-9 8-10.3c4.1-0.6 8.4-0.2 12.3 1.3c0 0-4.3-1-7.6 1.4c-3.4 2.4-6.6 5.6-12.7 7.6Z" fill="#c53f3f"/><path d="M14.9 13.4c0 0 1.7-9 8-10.3c4.1-0.6 8.4-0.2 12.3 1.3c0 0-4.3-1-7.6 1.4c-3.4 2.4-6.6 5.6-12.7 7.6Z" fill="#fff" opacity=".2"/><path d="M83.2 66.7c.5-0.1 1-0.2 1.5-0.3l.4-0.1c.4-0.1 .8-0.2 1.2-0.3c.2-0.1 .4-0.2 .6-0.3c.2 0 .3 0 .4-0.1l.3-0.2c.7-0.2 1.3-0.6 1.9-0.9l.3-0.2c.5-0.4 1.1-0.8 1.6-1.2l.2-0.2c.5-0.5 .9-1 1.3-1.5c.1 0 .2-0.1 .2-0.2c.4-0.5 .8-1.1 1.1-1.7c.1-0.1 .1-0.2 .2-0.3c.3-0.6 .5-1.2 .7-1.9c0-0.1 .1-0.2 .1-0.3c.1-0.4 .2-0.9 .3-1.3c0-0.2 0-0.4 .1-0.6c0-0.2 0-0.2 0-0.3c0-0.2 0-0.3 0-0.5c0-0.3 0-0.7 0-1c-0.1-0.4-0.1-0.7-0.2-1c0-0.2 0-0.3-0.1-0.5c0-0.1 0-0.2 0-0.3c-0.1-0.1-0.1-0.4-0.2-0.6c-0.1-0.4-0.3-0.8-0.5-1.2c0-0.1-0.1-0.2-0.1-0.4c-0.3-0.6-0.7-1.2-1.1-1.7l-0.2-0.3c-0.4-0.5-0.8-1-1.3-1.5c-0.1 0-0.2-0.1-0.3-0.2c-0.4-0.4-0.9-0.8-1.5-1.2l-0.3-0.1c-0.5-0.4-1.1-0.7-1.7-0.9l-0.3-0.2c-0.7-0.2-1.4-0.5-2-0.6l-0.4-0.1l-0.4-0.1l-0.6-0.1c-0.4-0.1-0.8-0.2-1.2-0.2h-0.4c-0.6 0-1.1 0-1.6 0h-0.5h-0.1l-0.4 .1c-0.2 0-0.4 0-0.5 0c-0.5 .1-1.1 .2-1.5 .3l-0.4 .1c-0.5 .1-0.9 .3-1.4 .4l-0.6 .3h-0.2l-0.3 .2c-0.6 .3-1.2 .6-1.8 1l-0.3 .2c-0.5 .3-1 .8-1.5 1.2l-0.3 .2c-0.5 .5-0.9 1-1.3 1.5c-0.1 .1-0.1 .1-0.2 .2c-0.4 .5-0.7 1.1-1 1.7c-0.1 .1-0.1 .2-0.2 .3c-0.3 .6-0.5 1.3-0.7 1.9c0 .1-0.1 .3-0.1 .4c-0.1 .2-0.1 .4-0.1 .6c-0.1 .2-0.1 .5-0.1 .7c-0.1 .3-0.1 .6-0.1 1c0 .1 0 .3 0 .4c0 .2 0 .5 0 .8c0 .2 0 .5 .1 .7c0 .1 0 .3 .1 .4c0 .3 .1 .7 .2 1c.1 .2 .1 .4 .2 .6c.1 .2 .1 .4 .2 .6c.1 .2 .1 .3 .2 .4c.3 .6 .6 1.2 1 1.8c.1 .1 .1 .2 .2 .2c.4 .6 .8 1.1 1.3 1.5l.2 .2c.5 .5 1 .9 1.6 1.2l.2 .2c.6 .4 1.2 .7 1.8 1l.3 .1c.6 .3 1.3 .5 1.9 .7l.4 .1l.2 .1l.7 .1c.4 .1 .9 .2 1.3 .2h.4c.5 0 1 .1 1.6 0c.1 0 .3 0 .5 0c.1 0 .2 0 .4 0h.1h.5Zm.2-1.4c-0.3 0-0.6 .1-0.9 .1c-0.4 0-0.9 0-1.3 0l1-1.2l1.2 1.1Zm-13.1-5.7c-0.3-0.4-0.6-0.9-0.8-1.4l.9-1l1.4 1.2l-1.2 1.5l-0.3-0.3Zm-1.4-4.2l1.2-1.4l1.5 1.2l-1.3 1.5l-1.4-1.2v-0.1Zm.7-4.3l.2-0.3l1.5 1.2l-1.2 1.5l-1-0.8c.1-0.6 .3-1.1 .5-1.6Zm7.2-6.8c.5-0.2 1-0.3 1.5-0.5l-0.9 1.1l-0.7-0.6h.1Zm3.9-0.9c.3 0 .6 0 .9 0l-1 1.2l-1.2-1c.4-0.1 .9-0.1 1.3-0.2Zm12.5 6.3c.1 .3 .2 .5 .3 .7l-1 1.3l-1.5-1.3l1.3-1.5l.9 .8Zm-0.5 5.2l-1.4-1.3l1.2-1.5l1.5 1.3l-1.3 1.5Zm1.1 2.2l-0.8 .9l-1.5-1.2l1.3-1.5l1.2 1c-0.1 .4-0.1 .6-0.2 .9v-0.1Zm-9.3 8l.9-1.1l.7 .6c-0.5 .2-1.1 .4-1.6 .5Zm-3.9 .3l-1.4-1.2l1.3-1.4l1.5 1.3l-1.2 1.4l-0.2-0.1Zm-1.8-21.7h.2l1.4 1.2l-1.3 1.4l-1.5-1.2l1.2-1.4Zm3.4-0.3l1.4 1.2l-1.3 1.4l-1.5-1.2l1.3-1.4h.1Zm-1.1 7.6l-1.5-1.3l1.3-1.5l1.5 1.3l-1.3 1.5Zm1.5-1.3l1.5 1.3l-1.3 1.4l-1.4-1.2l1.2-1.5Zm-1.7 1.5l-1.3 1.5l-1.4-1.3l1.2-1.4l1.5 1.2Zm.2 .2l1.5 1.3l-1.2 1.5l-1.5-1.3l1.2-1.5Zm1.8 1.5l1.4 1.3l-1.2 1.4l-1.5-1.2l1.3-1.5Zm-1.7 1.6l-1.3 1.4l-1.4-1.2l1.2-1.5l1.5 1.3Zm.3 .2l1.4 1.2l-1.2 1.5l-1.5-1.2l1.3-1.5Zm1.7 1.4l1.5 1.3l-1.3 1.5l-1.5-1.3l1.3-1.5Zm-1.7 1.6l-1.3 1.4l-1.5-1.2l1.3-1.5l1.5 1.3Zm.2 .2l1.5 1.2l-1.3 1.5l-1.4-1.3l1.2-1.4Zm1.7 1.4l1.5 1.3l-1.2 1.5l-1.5-1.3l1.2-1.5Zm.3-0.2l1.2-1.5l1.5 1.3l-1.3 1.4l-1.4-1.2Zm1.4-1.7l1.3-1.5l1.5 1.2l-1.3 1.5l-1.5-1.2Zm-0.2-0.3l-1.5-1.2l1.3-1.5l1.4 1.3l-1.2 1.4Zm0-2.9l1.2-1.5l1.5 1.2l-1.2 1.5l-1.5-1.2Zm-0.3-0.3l-1.5-1.2l1.3-1.5l1.5 1.3l-1.3 1.4Zm0-2.9l1.3-1.5l1.5 1.2l-1.3 1.5l-1.5-1.2Zm-0.2-0.3l-1.5-1.2l1.2-1.5l1.5 1.3l-1.2 1.4Zm-1.8-1.4l-1.4-1.3l1.2-1.5l1.5 1.3l-1.3 1.5Zm-1.7-1.5l-1.5-1.2l1.3-1.5l1.4 1.2l-1.2 1.5Zm-0.2 .3l-1.3 1.4l-1.4-1.2l1.2-1.5l1.5 1.3Zm-1.5 1.7l-1.2 1.5l-1.5-1.3l1.3-1.5l1.4 1.3Zm-1.4 1.7l-1.3 1.5l-1.5-1.3l1.3-1.4l1.5 1.2Zm.2 .2l1.5 1.3l-1.3 1.5l-1.5-1.3l1.3-1.5Zm0 3l-1.3 1.5l-1.4-1.3l1.2-1.4l1.5 1.2Zm.3 .2l1.4 1.3l-1.2 1.5l-1.5-1.3l1.3-1.5Zm0 3l-1.3 1.5l-1.5-1.3l1.3-1.4l1.5 1.2Zm.2 .2l1.5 1.3l-1.3 1.5l-1.4-1.3l1.2-1.5Zm1.7 1.5l1.5 1.2l-1.2 1.5l-1.5-1.2l1.2-1.5Zm1.8 1.5l1.4 1.2l-1.2 1.5l-1.5-1.3l1.3-1.4Zm3.2-0.3l1.5 1.3l-1.3 1.4l-1.5-1.2l1.3-1.5Zm.2-0.3l1.2-1.4l1.5 1.2l-1.2 1.5l-1.5-1.3Zm1.5-1.7l1.2-1.5l1.5 1.3l-1.3 1.5l-1.4-1.3Zm1.4-1.7l1.3-1.5l1.5 1.3l-1.3 1.4l-1.5-1.2Zm-0.2-0.2l-1.5-1.3l1.3-1.4l1.4 1.2l-1.2 1.5Zm0-3l1.2-1.5l1.5 1.3l-1.2 1.4l-1.5-1.2Zm-0.3-0.2l-1.5-1.3l1.3-1.5l1.5 1.3l-1.3 1.5Zm0-3l1.3-1.5l1.5 1.3l-1.3 1.4l-1.5-1.2Zm-0.2-0.2l-1.5-1.3l1.2-1.5l1.5 1.3l-1.2 1.5Zm-1.8-1.5l-1.4-1.2l1.2-1.5l1.5 1.2l-1.3 1.5Zm-1.7-1.5l-1.5-1.2l1.3-1.5l1.4 1.2l-1.2 1.5Zm-5.2-0.9l-1.2 1.5l-1.5-1.2l1.3-1.5l1.4 1.2Zm-1.4 1.8l-1.3 1.4l-1.5-1.2l1.3-1.5l1.5 1.3Zm-1.5 1.7l-1.3 1.5l-1.4-1.3l1.2-1.5l1.5 1.3Zm-1.5 1.7l-1.2 1.5l-1.5-1.3l1.2-1.5l1.5 1.3Zm.3 .2l1.5 1.3l-1.3 1.4l-1.5-1.2l1.3-1.5Zm0 3l-1.3 1.5l-1.5-1.3l1.3-1.4l1.5 1.2Zm.2 .2l1.5 1.3l-1.2 1.5l-1.5-1.3l1.2-1.5Zm0 3l-1.2 1.5l-1.5-1.3l1.2-1.4l1.5 1.2Zm.3 .2l1.5 1.3l-1.3 1.5l-1.5-1.3l1.3-1.5Zm1.7 1.5l1.5 1.3l-1.3 1.4l-1.4-1.3l1.2-1.4Zm1.7 1.5l1.5 1.2l-1.2 1.5l-1.5-1.3l1.2-1.4Zm5 1.2l1.5 1.2l-1.3 1.4h-0.1l-1.4-1.2l1.3-1.4Zm2.8 1.9l-0.9-0.7l1.3-1.5l1.4 1.3l-0.1 .1c-0.5 .3-1.1 .6-1.7 .8Zm.6-2.4l1.2-1.5l1.5 1.2l-1.2 1.5l-1.5-1.2Zm1.5-1.8l1.2-1.4l1.5 1.2l-1.3 1.5l-1.4-1.3Zm1.4-1.7l1.3-1.5l1.5 1.3l-1.3 1.5l-1.5-1.3Zm1.2-1.9l-1.4-1.3l1.2-1.5l1.5 1.3l-1.3 1.5Zm-0.2-3.2l-1.5-1.3l1.3-1.5l1.4 1.3l-1.2 1.5Zm-0.3-3.3l-1.4-1.2l1.2-1.5l1.5 1.3l-1.3 1.4Zm-1.7-1.4l-1.5-1.3l1.3-1.4l1.4 1.2l-1.2 1.5Zm-1.7-1.5l-1.5-1.3l1.3-1.4l1.4 1.2l-1.2 1.5Zm-0.5-3l-1.2 1.5l-1.5-1.2l.7-0.9c.6 .1 1.3 .3 1.9 .5l.1 .1Zm-3 0l-1.1-0.9c.6 .1 1.2 .1 1.7 .3l-0.6 .6Zm-7.4 .1l.8 .7l-1.2 1.5l-1.5-1.2c.6-0.3 1.3-0.7 1.9-1Zm-0.7 2.4l-1.2 1.5l-1.5-1.2l1.3-1.5l1.4 1.2Zm-1.4 1.8l-1.3 1.4l-1.5-1.2l1.3-1.5l1.5 1.3Zm-1.5 1.7l-1.3 1.5l-1.4-1.3l1.2-1.4l1.5 1.2Zm-1.2 1.9l1.5 1.3l-1.3 1.5l-1.5-1.3l1.3-1.5Zm.2 3.2l1.5 1.3l-1.2 1.5l-1.5-1.3l1.2-1.5Zm.3 3.2l1.5 1.3l-1.3 1.5l-1.5-1.3l1.3-1.5Zm1.7 1.5l1.5 1.3l-1.3 1.4l-1.5-1.2l1.3-1.5Zm1.8 1.5l1.4 1.2l-1.2 1.5l-1.5-1.2l1.3-1.5Zm1.7 1.5l1.5 1.2l-0.7 .8c-0.7-0.2-1.4-0.4-2-0.6l1.2-1.4Zm1.2 2.1l.5-0.7l1.1 .9c-0.6 0-1.1-0.1-1.6-0.2Zm10.7-2.1l.9-1.1l.2 .2c-0.3 .3-0.7 .6-1.1 .9Zm2.7-2.5c-0.4 .5-0.8 1-1.3 1.4l-0.3-0.2l1.3-1.5l.3 .3Zm.2-0.3l-0.3-0.3l1.2-1.4l.2 .1c-0.3 .6-0.7 1.1-1.1 1.6Zm1.2-2l.1-0.2c0 .1 0 .2-0.1 .3v-0.1Zm.8-2.3l-1.1-0.9l1.2-1.4c.1 .8 0 1.6-0.1 2.3Zm.1-2.8l-1.5-1.3l.9-1.1c.3 .8 .5 1.6 .6 2.4Zm-1.5-4.3l-0.2-0.2v-0.1c.1 .1 .1 .2 .2 .3Zm-1.7-2c.5 .4 .9 .9 1.3 1.5l-0.1 .1l-1.5-1.3l.3-0.3Zm-0.2-0.2l-0.3 .3l-1.5-1.2l.2-0.3c.6 .3 1.1 .7 1.6 1.1v.1Zm-2-1.1l-1.1-0.9c.4 .2 .9 .4 1.3 .6l-0.2 .3Zm-15.6 .7l-0.5 .6v-0.1c.1-0.2 .3-0.4 .5-0.5Zm-2.1 2.1c.4-0.5 .8-1 1.3-1.4l.1 .1l-1.2 1.5l-0.2-0.2Zm-0.2 .3l.2 .1l-1 1.2c.2-0.5 .5-0.9 .8-1.3Zm-1.9 4.4l.9 .7l-1 1.1c0-0.6 0-1.2 .1-1.8Zm0 2.9l1.2 1l-0.7 .8c-0.3-0.6-0.4-1.2-0.5-1.8Zm2 4.6l1.2 1l-0.2 .2c-0.4-0.4-0.7-0.8-1.1-1.2h.1Zm2.8 2.6c-0.6-0.3-1.1-0.7-1.6-1.2l.2-0.2l1.5 1.3l-0.1 .1Zm.3 .1l.6 .5c-0.2-0.1-0.4-0.2-0.7-0.4l.1-0.1Z" fill="#d31145"/><path d="M82.7 68c8.4-0.6 14.8-7.3 14.2-14.8c-0.6-7.5-8-13.1-16.4-12.4c-1.7 .1-3.2 .5-4.8 1.1h-0.1c-0.5 .2-1 .4-1.5 .7c-3 1.4-5.5 3.6-7.3 6.3c-1.8 2.2-3.3 4.9-7.3 6l-4.4 .4l.2 2.5l4.4-0.3c4.2 .5 6 2.8 8.2 4.8c2.2 2.3 5.1 4 8.2 5c.5 .1 1.1 .3 1.6 .4h.1c1.6 .4 3.3 .5 4.9 .3Zm-22.2-11.7v-0.3c3.3-1 4.9-3.3 6.4-5c-0.5 1.5-0.7 3.1-0.6 4.7c.2 1.6 .6 3.1 1.3 4.5c-1.8-1.5-3.8-3.4-7.1-3.9Zm17 10c-0.2-0.1-0.4-0.1-0.7-0.2c-5-1.5-8.7-5.5-9.2-10.5c-0.4-5 2.7-9.6 7.4-11.9l.7-0.3c1.5-0.7 3.2-1.1 4.9-1.3c7.7-0.6 14.4 4.4 15 11.2c.5 6.8-5.3 12.8-13 13.4c-1.7 .2-3.5 0-5.1-0.4Z" fill="#263238"/><path d="M56.1 55.4l.2 2.2c0 .3-0.2 .6-0.6 .7c0 0 0 0 0 0l-16.6 1.3c-0.3 0-0.6-0.2-0.7-0.6l-0.2-2.1c0-0.4 .3-0.7 .6-0.7c0 0 0 0 0 0l16.6-1.4c.4 0 .7 .3 .7 .6Z" fill="#d31145"/><path d="M48.2 54.2l-1.8-0.4c-0.7-0.2-1.5 0-2 .5l-2.6 2.2c-1 .9-1.5 2.3-1.4 3.6l.1 .9c3.1 .9 7.1-0.3 7.1-0.3l1.2-0.3c.4 0 .9-0.3 1.2-0.7c.3-0.4 .4-0.9 .3-1.4l-0.4-2.4c-0.2-0.8-0.8-1.5-1.7-1.7Z" fill="#ebb376"/><path d="M19.9 47.5c1.3 4.7 2.9 9.3 5 13.7c.6 1.4 1.4 2.7 2.3 4.1l-0.5-0.6c-0.2-0.1-0.4-0.2-0.6-0.2c2.1 .1 4.7-1.4 6.8-2.4c3.2-1.6 6.3-3.5 9.3-5.4c.9-0.5 2-0.3 2.6 .5c.6 .8 .5 1.9-0.1 2.6c-4.5 4.3-17 16-23.2 9.7c-3.9-5.2-6.8-11.2-8.5-17.6c-0.3-0.9-0.5-1.8-0.7-2.7c-0.5-2.1 .8-4.2 3-4.7c2.1-0.5 4.2 .8 4.6 3Z" fill="#e9b376"/><path d="M14.7 36.9c-4.4 3.1-4.6 7.7-2.4 16.5c3.1 1.7 10.8-0.2 10.8-0.2c0 0-2.2-13.8-8.4-16.3Z" fill="#c53f3f"/><path d="M14.7 36.9c-4.4 3.1-4.6 7.7-2.4 16.5c3.1 1.7 10.8-0.2 10.8-0.2c0 0-2.2-13.8-8.4-16.3Z" fill="#fff" opacity=".6"/><path fill="#ebb376" d="M74.9 31.7l2 5.4l-4.1 1.9l-2.8-6.4Z"/><path d="M65.9 36.8l4.1-4.2l2.8 6.4c0 0-4.3 2.9-6.1 1l-0.8-3.2Z" fill="#ebb376"/><path d="M72.9 42.8c-1.5-0.8-2.4-2.5-2.3-4.2c.2-1.7 1.4-3.2 3-3.7c1.7-0.5 3.5 0 4.6 1.3c1.1 1.4 1.3 3.3 .5 4.8c-0.5 1-1.4 1.8-2.5 2.1c-1.1 .4-2.3 .2-3.3-0.3Z" fill="#c53f3f"/><path d="M72.9 42.8c-1.3-0.7-2.2-2-2.3-3.4c0-0.3 0-0.6 0-0.9c.1-0.5 .2-1 .5-1.5c.5-1 1.3-1.7 2.4-2.1c.1 0 .3-0.1 .4-0.1c1-0.2 2.1-0.1 3 .4c.3 .1 .6 .3 .8 .5c.2 .2 .3 .3 .4 .4c.9 1 1.3 2.4 1 3.7c-0.3 1.4-1.1 2.5-2.3 3.1c-0.1 0-0.3 .1-0.4 .1c-1.1 .4-2.4 .4-3.5-0.2Z" fill="#fff" opacity=".7"/><g opacity=".2" fill="#263238" transform="translate(70.5,34.8)"><path d="M2.3 2.5c.8 0 1.5 .3 2.1 .9c.5 .6 .8 1.4 .7 2.2c0 .9 .3 1.8 .8 2.6c.1-0.1 .2-0.1 .3-0.2c-0.5-0.7-0.8-1.5-0.7-2.4c0-0.9-0.3-1.8-0.9-2.4c-0.6-0.6-1.4-1-2.3-1c-1 0-1.9 .6-2.3 1.5c0 .3 0 .6 0 .8c.6-1.4 1.3-2 2.3-2Zm4.1-1.3c.4 0 .8 0 1.2 .1c-0.1-0.1-0.3-0.3-0.4-0.4h-0.8c-0.6 0-1.2-0.1-1.8-0.2c-0.4-0.2-0.9-0.4-1.3-0.7c-0.1 0-0.2 .1-0.4 .1c.5 .4 1 .7 1.6 .9c.6 .2 1.3 .2 1.9 .2Z"/></g><g opacity=".6" fill="#fff" transform="translate(17.6,75.4)"><path d="M6.1 121.5l-1-0.2c-2.4-8.3-9-34.9-1.9-60.4c-0.4-1.7-4.7-22.5 1.8-60.8l.9-0.1c-6.8 39.8-1.9 60.6-1.9 60.8v.1v.1c-7.1 25.9-0.2 52.9 2.1 60.5Z"/></g><path d="M38.4 80.7c0 0 0 0-0.1 0c0-0.1-0.1-0.1-0.1-0.2c0 0 0-0.1 .1-0.1c.7-1.1 1.1-3.8 1.3-5c-0.7 .7-1.9 1.7-2.6 1.6c-0.3-0.1-0.5-0.3-0.5-0.5c-0.2-0.4-0.1-0.8 .1-1.1c.5-0.7 1.7-0.8 3.3-0.9c1.9-0.1 3.8-0.1 4.3 .8c.2 .4 .2 .9-0.1 1.2c-0.2 .4-0.5 .6-0.9 .7c-1 .1-2.4-1.2-3-1.8c.2 1.6 1.2 3.2 2.5 4.1c.1 .1 .1 .1 .1 .2c.1 0 0 .1 0 .2c0 0-0.1 0-0.1 .1c-0.1 0-0.2-0.1-0.2-0.1c-1.2-0.8-2.1-2.1-2.6-3.5c-0.2 1.5-0.6 2.9-1.3 4.2c0 .1-0.1 .1-0.2 .1Zm2-5.8c.7 .7 2 1.9 2.8 1.8c.2 0 .4-0.2 .5-0.4c.2-0.2 .2-0.5 .1-0.8c-0.4-0.6-2.1-0.6-3.4-0.6Zm-1 .1c-1 0-2.1 .1-2.4 .6c-0.2 .2-0.2 .5-0.1 .7c.1 .2 .1 .2 .2 .2c.4 .1 1.5-0.7 2.3-1.5Z" fill="#fff"/></g><g transform="translate(138.7,68.8)"><path d="M31.9 73.6c-4.2-3.5-8.3-7.2-10.9-12.1c-1.8-4-1.2-8.4-0.5-12.4c.5-2.9 1.4-5.8 2.5-8.5l3.3 .9c-0.5 5.1-1.4 10.7-0.2 15.8c.3 .9 .8 1.8 1.5 2.5c1.8 2.1 3.6 3.9 5.6 5.7c1 .9 2.1 1.8 3.1 2.7l-4.4 5.4Z" fill="#dc897c"/><path d="M14 113.5c0 0-9.5 16.3-9.5 24.9c.1 8.6 3.9 26.4 3.9 26.4h4.7c0 0-1.1-21.6-0.9-25.4c.3-3.8 10.3-18.6 10.3-18.6l-8.5-7.3Z" fill="#e4897b"/><path d="M33.4 113.5c0 0-1.7 17.7 0 26.1c1.7 8.4 8.9 25.2 8.9 25.2l4.7-0.9c0 0-5.4-20.9-5.8-24.7c-0.5-3.8 3.2-24.2 3.2-24.2l-11-1.5Z" fill="#e4897b"/><path d="M21.1 126.7c2.6-3.6 5.8-6.8 9.5-9.5c-0.1 3.9 .1 7.8 .5 11.7l14.8 1.2c.9-9.1 2.5-18.2 4.7-27.1l-27.3-8.8l-2.1 4.7c0 0-6.7 7.4-15.1 22.7l15 5.1Z" fill="#263238"/><path d="M34.1 165.8c2.1-0.4 4.2-1.3 5.9-2.7c-0.7-3.4-0.3-3.6 .6-3.4c1 .2 2.4 2.2 2.4 2.2c3.5-1.6 4.9 .6 4.9 .6c1.7 5.4 1.3 4.9-0.9 5.3c-2 .1-2.9 0-5.4 .2c-2.2 .2-4.4 .3-6.6 .2c-2.1-0.2-1.8-2.3-0.9-2.4Z" fill="#d31145"/><path d="M.7 165.8c2.1-0.4 4.2-1.3 5.9-2.7c-0.7-3.4-0.3-3.6 .6-3.4c1 .2 2.4 2.2 2.4 2.2c3.5-1.6 4.9 .6 4.9 .6c1.7 5.4 1.3 4.9-0.9 5.3c-2 .1-2.9 0-5.4 .2c-2.2 .2-4.4 .3-6.6 .2c-2.1-0.2-1.8-2.3-0.9-2.4Z" fill="#d31145"/><path d="M22.5 96.1l28.1 6.9c0 0 1.7-6.5 3.2-16.2c.5-3.1 1-6.6 1.4-10.3c.2-1.2 1.8-6.2 2-7.4c0 0-15 .6-24.1-3.8c0 0-5.4 19-10.6 30.8Z" fill="#d31145"/><path d="M41.2 65.1c0 1.1-0.4 2.2-1.1 3c-0.1 .1-0.3 .2-0.4 .4c-0.3 .2-0.5 .3-0.8 .5c0 0-0.5 2.7 1.7 3.3c2.7 .6 5.6 .2 8-1.3c-0.8-2-0.7-4.2 .2-6.2c.5-1 1.1-1.9 1.8-2.7l-7 .2h-3.2c.5 .9 .7 1.8 .8 2.8Z" fill="#e4897b"/><path d="M41.2 65.1c0 1.1-0.4 2.2-1.1 3c-0.1 .1-0.3 .2-0.4 .4c3.7 .5 7.2-2 9.1-3.7c.5-1 1.1-1.9 1.8-2.7l-7 .2h-3.2c.5 .9 .7 1.8 .8 2.8Z" fill="#000" opacity=".2"/><path d="M45.1 42.4c0 0-8.9 2.2-4.5 11.3c5 10.3 4.5-11.3 4.5-11.3Z" fill="#263238"/><path d="M56.6 58.6c-2.7 4.7-8.1 8.9-12.6 7.7c-8.2-2.2-10.5-5.1-8.7-11c1.7-5.4 7.2-12.6 14.2-11.1c6.9 1.5 10.8 7.7 7.1 14.4Z" fill="#e4897b"/><path d="M42.8 45.3c0 0 2 .3 8 3c1.1 1.9 1 4.2-0.4 5.9c-2.2 3.1 .9 6.9-1.1 11.4c0 0 4.9 1.7 10.3-7.8c4-7-0.9-12.7-7.4-15.6c-5.4-2.5-11.1-0.4-9.4 3.1Z" fill="#263238"/><path d="M44.6 54.6c-0.4 .6-0.9 .9-1.4 .7c-0.4-0.2-0.4-0.9-0.1-1.5c.3-0.6 .9-0.9 1.3-0.7c.4 .2 .5 .9 .2 1.5Z" fill="#263238"/><path d="M39.7 51.7c-0.3 .6-0.9 .9-1.2 .7c-0.4-0.1-0.5-0.8-0.2-1.4c.3-0.6 .9-0.9 1.3-0.7c.4 .2 .4 .9 .1 1.4Z" fill="#263238"/><path d="M44.4 50.5c0 0 0-0.1 0-0.2c0 0 .1-0.1 .2-0.1c0-0.1 .1-0.1 .2-0.1c1 .3 1.8 1 2.1 2c.1 .2 0 .3-0.2 .4c-0.2 0-0.3-0.1-0.4-0.2c-0.3-0.8-0.9-1.4-1.7-1.6c-0.1 0-0.2-0.1-0.2-0.2Z" fill="#263238"/><path d="M39.5 48.3c-0.1-0.1-0.1-0.1-0.1-0.2c-0.1-0.1 0-0.2 0-0.2c0-0.1 .1-0.1 .2-0.2c1-0.2 2 .1 2.8 .8c0 0 .1 .1 .1 .2c0 .1-0.1 .1-0.1 .2c-0.1 .1-0.3 .1-0.5 0c-0.6-0.5-1.4-0.7-2.2-0.5c-0.1 0-0.2-0.1-0.2-0.1Z" fill="#263238"/><path d="M40.3 53l-0.7 2.9c-0.7-0.1-1.4-0.5-1.9-1.1c1-0.5 1.9-1.1 2.6-1.8Z" fill="#de5753"/><path d="M49.6 58.9c0 0 2.8-2.4 3.8-0.7c1.1 1.7-1.7 6.6-4 5.5c-2.3-1.2-1.7-3.7 .2-4.8Z" fill="#e4897b"/><path d="M38.5 57.7c.1 .8 .1 1.6 .1 2.5l.4 .1c2 .4 3.1-0.1 3.6-0.8c.3-0.3 .5-0.7 .5-1.1c.1-0.2 .1-0.5 .1-0.7c-1.3 .3-2.7 .3-4 .1c-0.5-0.1-0.7-0.1-0.7-0.1Z" fill="#263238"/><path d="M39.2 57.8v.7c1.9 .4 3.3 .4 3.9-0.1c.1-0.2 .1-0.4 .1-0.7c-1.3 .4-2.7 .4-4 .1Z" fill="#fff"/><path d="M39 60.4c2 .3 3.1-0.2 3.6-0.8c-0.7-0.1-1.5-0.1-2.3 0c-0.5 .1-0.9 .4-1.3 .8Z" fill="#de5753"/><path d="M42.5 45.2c0 0-1.7-1.1 0-3.9c1.6-2.8 5.1-3.5 4.2-1.5c0 0 4.6-0.8 5.1 .6c.5 1.5-1.3 1.3-1.3 1.3c0 0 4.6 .5 4.9 2.3c.4 1.8-3.1 2.1-3.1 2.1l-9.8-0.9Z" fill="#263238"/><path d="M53.1 70c3.4-0.8 7-1.5 9.8-3.3c.8-0.7 1-1.9 1.3-3.4c.3-2.9 .4-5.7 .2-8.5c-0.2-3-0.5-6-0.9-8.9l3.3-0.8c2.2 7 6.4 21.7-0.5 27.1c-3.6 2.7-7.7 3.9-12 4.7l-1.2-6.9Z" fill="#dc897c"/><path d="M39.7 67.5c-5.9-2.2-11.3-7-11.3-7l-4.2 8.3l7.1 7.5l8.4-8.8Z" fill="#d31145"/><path d="M49.6 68.9c3.7-0.3 7.3-0.8 10.9-1.6l1.8 7.6l-8.6 5.4c0 0-6.5-5.3-4.1-11.4Z" fill="#d31145"/><path fill="#e4897b" d="M22 33.6l5.7 .7l-0.1 4.1l-6.9-0.6Z"/><path d="M22.7 42.9l-2-5l6.9 .5c0 0 .7 4.7-1.8 5.3l-3.1-0.8Z" fill="#e4897b"/><path fill="#e4897b" d="M67.9 37.3l-5.6 .7l.1 4.1l6.9-0.5Z"/><path d="M67.3 46.7l2-5.1l-6.9 .5c0 0-0.7 4.7 1.8 5.3l3.1-0.7Z" fill="#e4897b"/><path d="M34.8 106c-0.1 0-0.1-0.1-0.2-0.1c-0.9-1.2-1.3-2.7-1.3-4.1c-0.7 1.3-1.5 2.5-2.6 3.6c-0.1 0-0.1 0-0.2 0c-0.1 0-0.1-0.1-0.2-0.2c0-0.1 .1-0.2 .1-0.2c1.1-0.8 2.3-3.2 2.9-4.3c-0.9 .4-2.4 1.1-3 .7c-0.2-0.2-0.3-0.4-0.3-0.7c0-0.4 .1-0.7 .4-1c.7-0.5 1.8-0.2 3.5 .3c1.8 .5 3.6 1.1 3.8 2c.1 .5-0.1 .9-0.5 1.2c-0.3 .3-0.7 .4-1 .3c-1.1-0.2-1.9-1.8-2.4-2.7c-0.2 1.7 .2 3.4 1.2 4.8c0 .1 0 .1 0 .2c0 0 0 .1-0.1 .1c0 .1-0.1 .1-0.1 .1Zm-0.6-5.5c.4 .9 1.3 2.4 2 2.6c.3 0 .5-0.1 .7-0.2c.3-0.3 .4-0.6 .3-0.8c-0.1-0.7-1.8-1.2-3-1.6Zm-2.9-0.6c-0.2 0-0.4 0-0.6 .2c-0.2 .1-0.3 .4-0.3 .6c0 .2 .1 .3 .1 .3c.4 .2 1.7-0.3 2.7-0.8c-0.6-0.1-1.2-0.3-1.9-0.3Z" fill="#fff"/><path d="M48.4 11.2c.1 3.1-1.2 6.1-3.6 8.2c-0.7 .7-1.5 1.3-2.4 1.8l-0.5 .2c-0.6 .3-1.2 .5-1.8 .6c-0.9 .3-1.8 .4-2.8 .4c-3 0-5.9-1.2-8-3.4c-0.1-0.1-0.3-0.3-0.4-0.4c-1.8-2-2.8-4.7-2.8-7.4c0-0.5 0-0.9 .1-1.4c0-0.2 0-0.3 .1-0.5c.7-4.2 3.8-7.7 7.9-8.9c.4-0.1 .9-0.2 1.4-0.3l.8-0.1c.3 0 .5 0 .8 0h.1c4.7 .1 8.8 2.9 10.5 7.2l.1 .5c.4 1.1 .6 2.2 .6 3.4c0 0 0 .1-0.1 .1Z" fill="#d31145"/><g opacity=".7" fill="#fff" transform="translate(26.1,.1)"><path d="M22.3 11.1c0 3.2-1.3 6.2-3.6 8.3c-0.7 .7-1.5 1.3-2.4 1.7l-0.5 .2c-0.6 .3-1.2 .5-1.8 .7c-0.9 .2-1.9 .3-2.8 .3c-3 0-5.9-1.2-8-3.4c-0.1-0.1-0.3-0.2-0.4-0.3c-1.4-1.7-2.4-3.7-2.7-5.9c0 0 0 0 0 0c-0.1-0.5-0.1-1-0.1-1.5c0-0.5 0-1 .1-1.4c0-0.2 0-0.3 .1-0.5c.7-4.2 3.7-7.7 7.9-8.9c.4-0.1 .9-0.2 1.4-0.3l.8-0.1c.2 0 .5 0 .8 0h.1c.6 0 1.2 .1 1.8 .2c3.9 .6 7.2 3.3 8.6 6.9l.2 .5c.4 1.1 .6 2.2 .6 3.4c0 0-0.1 .1-0.1 .1Z"/></g><path fill="#263238" d="M32.8 7.6l-4.4 3.2l1.7 5.2h5.5l1.6-5.2Z"/><path d="M48.4 11l-1 .7l-4-3.2l-0.3-0.2l.1-0.3l1.8-4.8c1.2 1.1 2.1 2.4 2.6 3.9l.2 .5c.4 1.1 .6 2.2 .6 3.4Z" fill="#263238"/><path d="M44.8 19.4c-0.7 .7-1.6 1.3-2.5 1.8l-0.4 .2c-0.6 .3-1.2 .5-1.8 .6l.3-1.7l.1-0.3h.1l4.2-0.6Z" fill="#263238"/><path d="M37.1 0l-1.6 .8l-0.7 .4l-0.1-0.2l-0.6-0.6c.5-0.1 1-0.2 1.4-0.3l.8-0.1c.3 0 .5 0 .8 0Z" fill="#263238"/><path d="M36.3 0c-0.3 .3-0.6 .5-0.8 .8c-1.8 2-2.3 4.8-2.5 6.9c0 1 0 2 0 3l-0.4 .1c-0.1-1-0.1-2-0.1-3c.1-2.4 .8-4.8 2.2-6.8c.2-0.3 .5-0.6 .8-0.9l.8-0.1Z" fill="#263238"/><path d="M47.9 7.6c-1.6 .1-3.1 .4-4.5 .9c-2.2 .6-4.2 1.5-6.2 2.4c-1.3 .6-2.1 1.1-2.1 1.1l-0.2-0.4c.1 0 .8-0.5 2-1c2-1 4.1-1.9 6.3-2.5c1.4-0.5 3-0.8 4.5-0.9l.2 .4Z" fill="#263238"/><path d="M42.3 21.2l-0.4 .2c-0.5-0.3-1-0.7-1.5-1.1c-1.8-1.3-3.5-2.8-5.1-4.3c-1.2-1.2-1.9-2-2-2l.4-0.3c0 0 .7 .8 1.9 2c1.6 1.5 3.2 2.9 5 4.3c.6 .4 1.1 .8 1.7 1.2Z" fill="#263238"/><path d="M32.2 13.2c-0.7 .8-1.3 1.8-1.8 2.8c-0.5 .9-0.9 2-1.2 3c-0.1-0.1-0.2-0.3-0.3-0.4c.3-1 .7-2 1.1-2.9c.5-1 1.2-2 1.9-2.8l.3 .3Z" fill="#263238"/><path d="M30.6 11.6l-0.1 .4c-0.1 0-0.9-0.4-2-0.9c-0.7-0.4-1.5-0.8-2.4-1.3c0-0.2 0-0.3 .1-0.5c.9 .5 1.7 1 2.4 1.3c1.2 .6 2 1 2 1Z" fill="#263238"/><path d="M45 9.1c0 4.7-3.3 8.7-7.9 9.6c-4.6 .9-9.2-1.6-11-5.9c0 0 0 0 0 0c0-0.6-0.1-1.1-0.1-1.6c0-0.5 .1-0.9 .1-1.4c0-0.2 0-0.3 .1-0.5c.7-4.2 3.8-7.7 7.9-8.9c.5-0.1 .9-0.2 1.4-0.3l.8-0.1c.3 0 .5 0 .8 0h.1c.6 0 1.2 .1 1.8 .2c3.6 1.5 5.9 5 6 8.9Z" fill="#fff" opacity=".2"/></g><g transform="translate(67,0)"><path fill="#b55b52" d="M25.7 230l.8-4.9l.8-5.2l-6.2-1.9l-1.2 7l-0.9 5Z"/><path fill="#b55b52" d="M62.9 230l.1-4.3l.1-5.8l-6.5-1l-0.1 6.7l-0.1 4.4Z"/><path fill="#000" opacity=".2" d="M56.6 218.9l-0.1 6.7l6.5 .1l.1-5.8Z"/><path fill="#000" opacity=".2" d="M19.9 225l6.6 .1l.8-5.2l-6.2-1.9Z"/><path d="M19.4 226.7l7.2-0.1c.3 0 .5 .2 .6 .5l1.4 5.7c.1 .3 .1 .6-0.1 .9c-0.2 .2-0.5 .3-0.8 .3c-2.6 0-6.3-0.1-9.6 0c-3.8 0-6.2-0.2-10.6-0.1c-2.7 0-3.6-2.7-2.4-3c5.1-1.2 8.4-0.9 12.8-3.7c.4-0.3 1-0.5 1.5-0.5Z" fill="#263238"/><path d="M18.8 227.6c-1.1 .3-2.9 .5-3.7-0.1c-0.2-0.2-0.3-0.5-0.3-0.7c0-0.2 .1-0.4 .3-0.4c.7-0.5 3.4 .8 3.7 .9c.1 .1 .1 .1 .1 .2c0 .1 0 .1-0.1 .1Zm-3.5-1h-0.1c-0.1 0-0.1 .1-0.1 .2c0 .1 .1 .3 .2 .5c.4 .3 1.5 .4 2.9 .1c-1-0.5-2.4-1-2.9-0.8Z" fill="#c53f3f"/><path d="M18.8 227.6c0 0-0.1 0-0.1 0c-0.8-0.3-2.4-1.7-2.3-2.4c0-0.2 .1-0.4 .5-0.5c.4 0 .7 .1 .9 .3c.7 .7 1 1.5 1.1 2.5c0 0 0 .1 0 .1h-0.1Zm-2-2.6c-0.1 .1-0.1 .2-0.1 .2c-0.1 .4 1 1.5 1.8 2c-0.1-0.7-0.4-1.4-0.9-2c-0.1-0.1-0.4-0.2-0.6-0.2c-0.1 0-0.1 0-0.2 0Z" fill="#c53f3f"/><path d="M55.9 227.2l7.2-0.1c.3 0 .5 .2 .6 .4l1.4 5.8c.1 .3 0 .6-0.1 .8c-0.2 .2-0.5 .4-0.8 .4c-2.6 0-6.3-0.1-9.6-0.1c-3.8 .1-6.2-0.1-10.6-0.1c-2.7 0-3.5-2.7-2.4-2.9c5.1-1.2 8.4-0.9 12.8-3.7c.5-0.3 1-0.5 1.5-0.5Z" fill="#263238"/><path d="M55.3 228.1c-1.1 .2-2.9 .5-3.7-0.1c-0.2-0.2-0.3-0.5-0.3-0.8c0-0.2 .1-0.3 .3-0.4c.8-0.5 3.4 .8 3.7 1c.1 0 .1 .1 .1 .2c0 0 0 .1-0.1 .1Zm-3.5-1h-0.1c-0.1 0-0.1 .1-0.1 .1c0 .2 .1 .4 .2 .5c.4 .4 1.5 .4 3 .2c-1.1-0.5-2.5-1-3-0.8Z" fill="#c53f3f"/><path d="M55.3 228.1c0 0-0.1 0-0.1 0c-0.8-0.4-2.4-1.7-2.3-2.5c0-0.2 .1-0.4 .6-0.4c.3-0.1 .6 0 .9 .2c.8 .7 1 2.5 1 2.5c0 .1 0 .1 0 .2h-0.1Zm-2-2.6c-0.1 .1-0.1 .1-0.1 .2c-0.1 .4 1 1.5 1.8 2c0-0.8-0.4-1.5-0.9-2c-0.1-0.2-0.4-0.3-0.6-0.2c-0.1 0-0.1 0-0.2 0Z" fill="#c53f3f"/><path d="M71 85.8c2.8 13.2-2.6 106.1-4 127.9c-0.1 3-1.2 5.8-3 8.2l-0.3 .4l-7.1-0.3l-0.6-1.6c-0.5-1.5-0.7-3.1-0.8-4.6l-3.5-95.7l-18.3 92.8c-0.7 3.2-2.1 6.3-4.1 8.8l-0.7 .9l-8.1-1.4l-0.3-3.7c0-0.5 0-1 0-1.5c9-75.3 16.6-120.2 16.6-120.2l.9-5.8l33.3-4.2Z" fill="#263238"/><path d="M71 85.8c2.8 13.2-2.6 106.1-4 127.9c-0.1 3-1.2 5.8-3 8.2l-0.3 .4l-7.1-0.3l-0.6-1.6c-0.5-1.5-0.7-3.1-0.8-4.6l-3.5-95.7l-18.3 92.8c-0.7 3.2-2.1 6.3-4.1 8.8l-0.7 .9l-8.1-1.4l-0.3-3.7c0-0.5 0-1 0-1.5c9-75.3 16.6-120.2 16.6-120.2l.9-5.8l33.3-4.2Z" fill="#fff" opacity=".2"/><path d="M12.4 81.4l-6.5-0.9l2.3 6.9c0 0 5.8 .4 5.9-2.6l-1.7-3.4Z" fill="#b55b52"/><path fill="#b55b52" d="M0 83.2l4 5.2l4.2-1l-2.3-6.9Z"/><path d="M46.4 42.7c-1.3 4.3-2.7 8.6-4.1 12.9c-1.6 4.6-2.8 9.6-5.9 13.5c-3 4-7.4 6.4-11.5 9.1c-3.7 2.5-7.6 4.9-11.5 7.2l-2.6-3.4c3.3-3.1 6.7-6.1 10.2-9c3.7-3.3 8.3-6.1 10.2-10.9c.4-0.8 .7-1.7 .9-2.6c1.9-6.5 3.8-13 6-19.4l8.3 2.6Z" fill="#b55b52"/><path d="M41.8 35.1c-3.6 .9-12.5 16.7-12.5 16.7l11.8 7c0 0 3.7-12.7 3.7-16.9c-0.1-2.6-1.2-5-3-6.8Z" fill="#d31145"/><path d="M77.7 37.5c-1.9 7-3.2 14-4 21.1c-0.6 5-0.9 9.7-1.2 14c-0.4 10.1-0.2 17.8-0.5 20.4l-34.2-2.6c-4.8-36.5 4.1-55.3 4.1-55.3c2.5-0.4 5.1-0.7 7.6-0.9h.5c.6 0 1.2 0 1.8 0c4.9 .1 9.8 .4 14.6 1.1l1.6 .2l1.1 .2c4.6 .7 8.6 1.8 8.6 1.8Z" fill="#d31145"/><path d="M50.7 35.2c0 0 1.7 3.2 3.3 3.6c2.2 .6 11.3-3.4 11.3-3.4c-1.8-1.7-2.3-5-2.2-8.3c0-2.7 .3-5.4 .9-8.1l-9 7.5c.6 2.8 .9 5.7-1.4 7.5c-0.9 .6-1.8 1-2.9 1.2Z" fill="#b55b52"/><path d="M53.6 34c3.7-1.4 7-3.8 9.5-6.9c0-2.7 .3-5.4 .9-8.1l-9 7.5c.7 2.8 .9 5.8-1.4 7.5Z" fill="#000" opacity=".2"/><path d="M48 9.1c-1 2.4-1 7.5 2.6 6.1c3.5-1.3-0.9-10.2-2.6-6.1Z" fill="#263238"/><path d="M65.4 14c-0.2 6.3 .1 10-3 13.4c-0.9 .9-2 1.6-3.2 2.1c-4.5 1.6-9.8-1.1-11.2-6.1c-1.5-5.7-1-15.1 5.2-17.8c2.7-1.2 5.9-0.9 8.4 .8c2.5 1.7 3.9 4.6 3.8 7.6Z" fill="#b55b52"/><path d="M61 25.4c0 0 3.2-1.9 4.1-3.5c0 0 .2 2.4-4.4 4l.3-0.5Z" fill="#263238"/><path d="M61.3 10.1l.6-7c0 0 5.8 2.3 5.1 6.1c4 2.4 3.3 10.9-2.5 13.5c-2.9-2.6-2.1-12.9-2.1-12.9c-0.4 .1-0.7 .2-1.1 .3Z" fill="#263238"/><path d="M68 19.2c-0.4 1.5-1.4 2.8-2.8 3.6c-1.9 1-3.3-0.6-3.2-2.6c.1-1.8 1.2-4.5 3.3-4.7c.9-0.1 1.8 .3 2.4 1.1c.5 .7 .7 1.7 .3 2.6Z" fill="#b55b52"/><path d="M55.8 16c0 .5-0.2 .9-0.6 .9c-0.3 .1-0.6-0.4-0.6-0.9c0-0.5 .2-0.9 .6-0.9c.3-0.1 .6 .3 .6 .9Z" fill="#263238"/><path d="M63.4 16l-0.5-0.5c-0.5 2.3-5.9 4.7-7.3 4.6c-0.9 0-1.7 .6-2.1 1.4c-2-0.9-5.5 1.9-5.5 1.9c1.4 5 6.7 7.7 11.2 6.1c.8-0.5 1.5-1.1 2.1-1.5c2.1-1.4 2.1-12 2.1-12Zm-4.7 7.9c-0.4 1-1.1 1.5-2 .4l-1 .3c0 0 1 .9-0.1 1.3c-1.1 .4-2.5-0.8-2.7-2.2c-0.2-1.3 .7-1.8 1-1.8h.7c.8-0.6 1.7-1 2.7-1.2c1.1-0.1 1.9 2.2 1.4 3.2Z" fill="#263238"/><path d="M63.4 16l-0.5-0.5c-0.5 2.3-5.9 4.7-7.3 4.6c-0.9 0-1.7 .6-2.1 1.4c-2-0.9-5.5 1.9-5.5 1.9c1.4 5 6.7 7.7 11.2 6.1c.8-0.5 1.5-1.1 2.1-1.5c2.1-1.4 2.1-12 2.1-12Zm-4.7 7.9c-0.4 1-1.1 1.5-2 .4l-1 .3c0 0 1 .9-0.1 1.3c-1.1 .4-2.5-0.8-2.7-2.2c-0.2-1.3 .7-1.8 1-1.8h.7c.8-0.6 1.7-1 2.7-1.2c1.1-0.1 1.9 2.2 1.4 3.2Z" fill="#fff" opacity=".2"/><path d="M50 16.1c0 .5-0.3 .9-0.6 .9c-0.4 0-0.6-0.4-0.6-0.9c-0.1-0.4 .2-0.9 .5-0.9c.4 0 .7 .4 .7 .9Z" fill="#263238"/><path d="M51.8 16.3c-0.5 1.6-1.3 3-2.3 4.3c.7 .5 1.6 .6 2.4 .4l-0.1-4.7Z" fill="#a02724"/><path d="M54.8 22.9c-0.2 0-0.5 .1-0.7 .1c-0.1 0-0.1-0.1-0.1-0.2c0-0.1 0-0.1 .1-0.1c1.3 0 2.5-0.7 3.3-1.7c0-0.1 .1-0.1 .2-0.1c0 .1 .1 .1 .1 .1c0 .1 0 .1 0 .1c-0.7 1-1.7 1.6-2.9 1.8Z" fill="#263238"/><path d="M57.6 14.1c-0.1 0-0.2 0-0.3-0.1c-0.4-0.6-1.2-1-2-1c0 0-0.1 0-0.2-0.1c0 0-0.1-0.1-0.1-0.2c0-0.1 .1-0.3 .3-0.3c1 0 1.9 .4 2.5 1.2c0 .1 .1 .1 .1 .2c0 .1-0.1 .2-0.1 .2c-0.1 .1-0.1 .1-0.2 .1Z" fill="#263238"/><path d="M47.4 14.2c-0.1 0-0.1 0-0.2 0c-0.1-0.1-0.1-0.1-0.1-0.2c-0.1-0.1-0.1-0.2 0-0.3c.3-0.9 1.1-1.5 2.1-1.7c.2-0.1 .3 0 .3 .2c0 .1 0 .2 0 .2c-0.1 .1-0.1 .1-0.2 .2c-0.8 .1-1.4 .6-1.7 1.4c0 .1-0.1 .1-0.2 .2Z" fill="#263238"/><path d="M72 13.2c0 0-2 2.7-2.8 2.2c-0.9-0.5-3.9-1.5-5.2-0.9c-1.4 .6-3.8-4.6-3.8-4.6c0 0-8.8-2.3-12.2-0.8c-0.6-0.6-0.9-1.4-0.9-2.2c0-0.3 .2-0.6 .3-0.8c1.3-1.7 2.8-3.2 4.6-4.2c1.2-0.7 2.4-1.2 3.6-1.5c.6-0.1 1.3-0.2 1.9-0.3c.4 0 .8 0 1.3-0.1c.4 0 .7 0 1.1 0c.6 0 1.3 .1 2 .2c.5 .1 1 .2 1.5 .3c4.6 1.4 7.3 5.4 8.6 12.7Z" fill="#d31145"/><path d="M72 13.2c0 0-2 2.7-2.8 2.2c-0.9-0.5-3.9-1.5-5.2-0.9c-1.4 .6-3.8-4.6-3.8-4.6c0 0-8.8-2.3-12.2-0.8c-0.6-0.6-0.9-1.4-0.9-2.2c.1 0 .2 .1 .3 .1c3.3-0.8 6.7-0.8 9.9 0c6.2 1.2 12.7 6.5 14.7 6.2Z" fill="#263238"/><path d="M72 13.2c0 0-2 2.7-2.8 2.2c-0.9-0.5-3.9-1.5-5.2-0.9c-1.4 .6-3.8-4.6-3.8-4.6c0 0-8.8-2.3-12.2-0.8c-0.6-0.6-0.9-1.4-0.9-2.2c.1 0 .2 .1 .3 .1c3.3-0.8 6.7-0.8 9.9 0c6.2 1.2 12.7 6.5 14.7 6.2Z" fill="#fff" opacity=".2"/><g opacity=".2" fill="#000" transform="translate(50.3,0)"><path d="M8.5 0c.3 0 .7 0 1.1 0c-2.2 .8-4.2 2.3-5.6 4.2c-0.1 .1-0.2 .2-0.4 .2c0 0-0.1-0.1-0.2-0.1c-0.2-0.2-0.3-0.4-0.1-0.6c1-1.5 2.4-2.7 3.9-3.6c.4-0.1 .8-0.1 1.3-0.1Z"/><path d="M11.6 .2c.5 .1 1 .2 1.5 .3c-2.1 .9-3.9 2.3-5.2 4.1c-0.1 .1-0.2 .2-0.4 .2c-0.1 0-0.2-0.1-0.2-0.1c-0.2-0.2-0.3-0.4-0.2-0.6c1.2-1.7 2.7-3 4.5-3.9Z"/><path d="M5.3 .4c-1.8 .9-3.3 2.2-4.5 3.8c-0.1 .1-0.2 .2-0.4 .2c0 0-0.1-0.1-0.2-0.1c-0.2-0.2-0.3-0.4-0.1-0.6c.5-0.7 1-1.3 1.6-1.8c1.1-0.7 2.4-1.2 3.6-1.5Z"/></g><path d="M62.7 12.4c0 0 .1 10.1-2.8 14.1c-3 4-6.4 2.9-6.4 2.9c0 0 .3 .9 2.8 .6c2.6-0.4 7.8-5 7.7-16.2l-1.3-1.4Z" fill="#263238"/><path d="M47.6 140.9l4.1-20.8l-0.6-11.1c0 0-5.5 19.1-3.5 31.9Z" fill="#000" opacity=".2"/><path d="M49.4 98.7c0 0-0.1 0-0.1-0.1c-0.1-0.1-0.1-0.2 0-0.3c.8-1 1.3-3.7 1.6-4.9c-0.8 .7-2 1.7-2.7 1.5c-0.3-0.1-0.5-0.3-0.5-0.6c-0.1-0.3-0.1-0.8 .2-1.1c.4-0.6 1.7-0.6 3.3-0.6c1.9 0 3.8 0 4.3 .9c.2 .4 .1 .9-0.2 1.2c-0.2 .3-0.5 .6-0.9 .6c-1 .1-2.3-1.2-2.9-1.9c.1 1.6 1 3.2 2.4 4.2c.1 .1 .1 .3 0 .4c-0.1 .1-0.2 .1-0.3 0c-1.2-0.9-2-2.2-2.4-3.6c-0.3 1.5-0.8 2.9-1.5 4.2c-0.1 .1-0.2 .1-0.3 .1Zm2.3-5.7c.6 .7 1.8 1.9 2.6 1.9c.3 0 .5-0.2 .6-0.4c.2-0.3 .2-0.6 .1-0.8c-0.3-0.6-2.1-0.7-3.3-0.7Zm-1.1 0c-1.2 0-2.1 .1-2.4 .5c-0.2 .2-0.2 .5-0.1 .7c0 .2 .1 .2 .1 .2c.5 .1 1.6-0.6 2.4-1.4Z" fill="#fff"/><path d="M77.7 37.5c-1.9 7-3.2 14-4 21.1c-0.6 5-0.9 9.7-1.2 14c-0.4 10.1-0.2 17.8-0.5 20.4l-34.2-2.6c-4.8-36.5 4.1-55.3 4.1-55.3c2.5-0.4 5.1-0.7 7.6-0.9l-0.1 .6c0 0 .3 4.3 3.6 5.3c2.6 .9 11.4-3 15-4.6l1.1 .2c4.6 .7 8.6 1.8 8.6 1.8Z" fill="#fff" opacity=".7"/><path d="M80.4 41.9c3 3.3 5.7 6.8 8.4 10.4c2.8 3.9 5.3 7.4 7.2 12.1c1.8 3.9 .2 7.1-2.1 9.8c-4.8 5.2-10.7 8.8-16.7 12.1l-2.4-3.6c3.2-2.8 6.4-5.7 9.4-8.7c1.8-1.9 4-4 4.8-6.3c0-0.1 0-0.1 0 .4c0 .2 0 0 0 0c-0.9-2-2-3.9-3.3-5.6c-3.7-5.1-7.8-10.1-11.8-15l6.5-5.7v.1Z" fill="#b55b52"/><path d="M77.7 37.5c4.7 1.7 14 16.2 14 16.2l-10.1 8.4l-8.4-5.1c0 0-3.6-8.2-1.6-13.5c2.1-5.3 6.1-6 6.1-6Z" fill="#d31145"/><path fill="#b55b52" d="M64.7 82.9l1.9 6.5l4.8-0.9l-1.9-8Z"/><path d="M75.8 81.8l-6.3-1.3l1.9 8c0 0 5.7-0.1 5.9-3.2l-1.5-3.5Z" fill="#b55b52"/><path fill="#d31145" d="M56.3 221.1v2.5h7.7l.3-2.1Z"/><path fill="#d31145" d="M20.4 220.4l8.9 1.3l-0.7 2.8l-8.7-0.9Z"/></g></g></g></g><g><g><path d="M1.2 1.2l35.1 35.1" fill="#ddd" stroke="red" stroke-width="3"/><rect width="2.5" height="21.8" fill="red"/><rect width="2.5" height="21.8" fill="red" transform="translate(12.9,1.2) rotate(90) translate(-1.2,-8.9)"/></g><g transform="translate(356.8,18.2) rotate(90) translate(-18.2,-18.2)"><path d="M1.2 1.2l35.1 35.1" fill="#ddd" stroke="red" stroke-width="3"/><rect width="2.5" height="21.8" fill="red"/><rect width="2.5" height="21.8" fill="red" transform="translate(12.9,1.2) rotate(90) translate(-1.2,-8.9)"/></g></g><g transform="translate(187.5,320.3) rotate(180) translate(-187.5,-18.2)"><g><path d="M1.2 1.2l35.1 35.1" fill="#ddd" stroke="red" stroke-width="3"/><rect width="2.5" height="21.8" fill="red"/><rect width="2.5" height="21.8" fill="red" transform="translate(12.9,1.2) rotate(90) translate(-1.2,-8.9)"/></g><g transform="translate(356.8,18.2) rotate(90) translate(-18.2,-18.2)"><path d="M1.2 1.2l35.1 35.1" fill="#ddd" stroke="red" stroke-width="3"/><rect width="2.5" height="21.8" fill="red"/><rect width="2.5" height="21.8" fill="red" transform="translate(12.9,1.2) rotate(90) translate(-1.2,-8.9)"/></g></g><text x="156.8" y="36.3" fill="red" font-family="Arial" letter-spacing="0" word-spacing="0" font-weight="700" style="line-height: 16px;">375x338</text></svg>